<svg width="306" height="93" viewBox="0 0 306 93" fill="none" xmlns="http://www.w3.org/2000/svg">
<path d="M15.1509 44.0922C21.8709 44.0922 27.7509 39.7802 29.0389 33.7322L24.5029 33.1722C23.3269 37.1482 19.5749 39.8922 15.1509 39.8922C9.3829 39.8922 5.07089 35.3562 5.07089 28.8042C5.01489 22.3082 9.4389 17.7722 15.2069 17.7722C19.5189 17.7722 23.3829 20.5162 24.4469 24.6042L28.9269 23.9882C27.9189 17.9402 22.0949 13.5722 15.1509 13.5722C6.63889 13.5722 0.422895 19.9562 0.422895 28.8042C0.366895 37.6522 6.5829 44.0922 15.1509 44.0922ZM32.108 42.9722H36.756V18.8922H53.78V42.9722H58.428V14.6922H32.108V42.9722ZM70.8893 43.8682C75.4253 43.8682 78.7293 42.0762 80.7453 38.8282H81.2493V42.9722H85.8973V24.2122C85.8973 17.7722 81.2493 13.6282 73.9133 13.6282C66.8013 13.6282 62.1533 17.4362 62.1533 23.4282H66.8573C66.8013 19.9002 69.6013 17.8282 73.8573 17.8282C78.5053 17.8282 81.2493 20.2922 81.2493 24.1002V25.2202L73.4093 26.1722C65.0093 27.1242 60.7533 30.8202 60.7533 35.8042C60.7533 40.6762 64.7853 43.8682 70.8893 43.8682ZM71.5613 40.0042C67.7533 40.0042 65.4013 38.3802 65.4013 35.6922C65.4013 33.0602 67.6413 30.8202 73.4093 30.0922L81.2493 29.1962V31.7162C81.2493 36.4762 77.3293 40.0042 71.5613 40.0042ZM103.158 44.0922C109.878 44.0922 115.758 39.7802 117.046 33.7322L112.51 33.1722C111.334 37.1482 107.582 39.8922 103.158 39.8922C97.3904 39.8922 93.0784 35.3562 93.0784 28.8042C93.0224 22.3082 97.4464 17.7722 103.214 17.7722C107.526 17.7722 111.39 20.5162 112.454 24.6042L116.934 23.9882C115.926 17.9402 110.102 13.5722 103.158 13.5722C94.6464 13.5722 88.4304 19.9562 88.4304 28.8042C88.3744 37.6522 94.5904 44.0922 103.158 44.0922ZM120.115 42.9722H125.771L140.779 21.3562H141.339V42.9722H145.987V14.6922H140.331L125.267 36.3642H124.763V14.6922H120.115V42.9722ZM164.005 44.3162C172.237 44.3162 178.061 38.4922 178.061 30.1482C178.061 21.9162 173.021 15.8122 164.789 15.8122C160.533 15.8122 157.285 17.4922 155.437 20.5722H154.877C155.437 10.8282 158.013 7.97217 166.357 7.97217C173.133 7.97217 176.381 5.84417 176.381 0.972165H172.293C172.293 2.87617 170.445 3.60417 165.909 3.60417C153.421 3.60417 149.949 9.37217 149.949 30.1482C149.949 38.4922 155.773 44.3162 164.005 44.3162ZM164.005 40.1162C158.517 40.1162 154.597 35.8602 154.597 29.9802C154.597 23.9882 158.629 20.0122 164.005 20.0122C169.549 20.0122 173.413 24.1562 173.413 29.9802C173.413 35.8602 169.549 40.1162 164.005 40.1162ZM194.784 44.0922C203.632 44.0922 209.96 37.7642 209.96 28.8042C209.96 19.9002 203.632 13.5722 194.784 13.5722C185.88 13.5722 179.608 19.9002 179.608 28.8042C179.608 37.7642 185.88 44.0922 194.784 44.0922ZM194.784 39.8922C188.624 39.8922 184.256 35.2442 184.256 28.8042C184.256 22.4202 188.624 17.7722 194.784 17.7722C200.888 17.7722 205.312 22.4202 205.312 28.8042C205.312 35.2442 200.888 39.8922 194.784 39.8922ZM12.7989 92.0922C19.4069 92.0922 24.1669 88.4522 24.1669 83.1322C24.1669 79.6602 22.0949 77.1402 18.7349 76.4122V75.8522C21.6469 75.1242 23.3829 73.1082 23.3829 70.0282C23.3829 64.9882 18.7349 61.5722 12.4069 61.5722C5.57489 61.5722 0.758895 65.6042 0.814895 71.2042H5.2949C5.2949 68.0122 8.1509 65.7722 12.2949 65.7722C16.1029 65.7722 18.8469 67.5642 18.8469 70.2522C18.8469 72.6042 16.7189 74.2282 13.7509 74.2282H8.6549V78.4282H13.6949C17.0549 78.4282 19.5189 79.8842 19.5189 82.7962C19.5189 85.8202 16.7189 87.8922 12.7429 87.8922C8.2069 87.8922 5.01489 85.2042 5.01489 81.4522H0.366895C0.366895 87.6122 5.57489 92.0922 12.7989 92.0922ZM34.5899 91.8682C39.1259 91.8682 42.4299 90.0762 44.4459 86.8282H44.9499V90.9722H49.5979V72.2122C49.5979 65.7722 44.9499 61.6282 37.6139 61.6282C30.5019 61.6282 25.8539 65.4362 25.8539 71.4282H30.5579C30.5019 67.9002 33.3019 65.8282 37.5579 65.8282C42.2059 65.8282 44.9499 68.2922 44.9499 72.1002V73.2202L37.1099 74.1722C28.7099 75.1242 24.4539 78.8202 24.4539 83.8042C24.4539 88.6762 28.4859 91.8682 34.5899 91.8682ZM35.2619 88.0042C31.4539 88.0042 29.1019 86.3802 29.1019 83.6922C29.1019 81.0602 31.3419 78.8202 37.1099 78.0922L44.9499 77.1962V79.7162C44.9499 84.4762 41.0299 88.0042 35.2619 88.0042ZM63.527 90.9722H77.919C83.407 90.9722 87.271 87.6122 87.271 82.7962C87.271 79.2122 85.087 77.0282 82.119 76.4122V75.8522C84.527 75.0122 86.431 72.7722 86.431 69.7482C86.431 65.7162 82.791 62.6922 77.695 62.6922H63.527V90.9722ZM68.175 74.1722V66.6682H77.191C79.879 66.6682 81.839 68.4042 81.839 70.4762C81.839 72.5482 79.879 74.1722 77.191 74.1722H68.175ZM68.175 86.9962V78.2042H77.135C80.383 78.2042 82.623 79.9962 82.623 82.4602C82.623 84.9242 80.383 86.9962 77.135 86.9962H68.175ZM89.8186 90.9722H94.4666V78.7642H110.987V90.9722H115.635V62.6922H110.987V74.5642H94.4666V62.6922H89.8186V90.9722ZM120.157 90.9722H125.813L140.821 69.3562H141.381V90.9722H146.029V62.6922H140.373L125.309 84.3642H124.805V62.6922H120.157V90.9722ZM150.55 90.9722H155.198V69.1882H155.702L165.782 90.9722H169.926L180.006 69.1882H180.566V90.9722H185.214V62.6922H178.438L168.078 85.1482H167.518L157.27 62.6922H150.55V90.9722ZM197.644 91.8682C202.18 91.8682 205.484 90.0762 207.5 86.8282H208.004V90.9722H212.652V72.2122C212.652 65.7722 208.004 61.6282 200.668 61.6282C193.556 61.6282 188.908 65.4362 188.908 71.4282H193.612C193.556 67.9002 196.356 65.8282 200.612 65.8282C205.26 65.8282 208.004 68.2922 208.004 72.1002V73.2202L200.164 74.1722C191.764 75.1242 187.508 78.8202 187.508 83.8042C187.508 88.6762 191.54 91.8682 197.644 91.8682ZM198.316 88.0042C194.508 88.0042 192.156 86.3802 192.156 83.6922C192.156 81.0602 194.396 78.8202 200.164 78.0922L208.004 77.1962V79.7162C208.004 84.4762 204.084 88.0042 198.316 88.0042ZM216.641 90.9722H221.289V78.7642H237.809V90.9722H242.457V62.6922H237.809V74.5642H221.289V62.6922H216.641V90.9722ZM246.98 90.9722H252.636L267.644 69.3562H268.204V90.9722H272.852V62.6922H267.196L252.132 84.3642H251.628V62.6922H246.98V90.9722ZM291.205 92.0922C297.477 92.0922 302.573 89.1802 304.813 84.3642L300.949 82.4042C299.213 85.7642 295.517 87.8922 291.261 87.8922C285.549 87.8922 281.405 84.0842 280.733 78.3722H305.765C305.821 77.7562 305.821 77.0842 305.821 76.5242C305.821 67.8442 299.549 61.5722 290.925 61.5722C282.189 61.5722 275.917 67.8442 275.917 76.4682C275.917 85.5402 282.357 92.0922 291.205 92.0922ZM280.789 74.2842C281.573 69.1882 285.493 65.7722 290.757 65.7722C296.077 65.7722 300.109 69.1882 300.893 74.2842H280.789Z" fill="#FCFBFD"/>
</svg>
