<svg width="1181" height="100" viewBox="0 0 1181 100" fill="none" xmlns="http://www.w3.org/2000/svg">
<path d="M33.8453 98.7885C49.2053 98.7885 62.6453 88.9325 65.5893 75.1085L55.2213 73.8285C52.5333 82.9165 43.9573 89.1885 33.8453 89.1885C20.6613 89.1885 10.8053 78.8205 10.8053 63.8445C10.6773 48.9965 20.7893 38.6285 33.9733 38.6285C43.8293 38.6285 52.6613 44.9005 55.0933 54.2445L65.3333 52.8365C63.0293 39.0125 49.7173 29.0285 33.8453 29.0285C14.3893 29.0285 0.18126 43.6205 0.18126 63.8445C0.0532594 84.0685 14.2613 98.7885 33.8453 98.7885ZM71.3243 96.2285H81.9483V41.1885H120.86V96.2285H131.484V31.5885H71.3243V96.2285ZM158.687 98.2765C169.055 98.2765 176.607 94.1805 181.215 86.7565H182.367V96.2285H192.991V53.3485C192.991 38.6285 182.367 29.1565 165.599 29.1565C149.343 29.1565 138.719 37.8605 138.719 51.5565H149.471C149.343 43.4925 155.743 38.7565 165.471 38.7565C176.095 38.7565 182.367 44.3885 182.367 53.0925V55.6525L164.447 57.8285C145.247 60.0045 135.519 68.4525 135.519 79.8445C135.519 90.9805 144.735 98.2765 158.687 98.2765ZM160.223 89.4445C151.519 89.4445 146.143 85.7325 146.143 79.5885C146.143 73.5725 151.263 68.4525 164.447 66.7885L182.367 64.7405V70.5005C182.367 81.3805 173.407 89.4445 160.223 89.4445ZM231.165 98.7885C246.525 98.7885 259.965 88.9325 262.909 75.1085L252.541 73.8285C249.853 82.9165 241.277 89.1885 231.165 89.1885C217.981 89.1885 208.125 78.8205 208.125 63.8445C207.997 48.9965 218.109 38.6285 231.293 38.6285C241.149 38.6285 249.981 44.9005 252.413 54.2445L262.653 52.8365C260.349 39.0125 247.037 29.0285 231.165 29.0285C211.709 29.0285 197.501 43.6205 197.501 63.8445C197.373 84.0685 211.581 98.7885 231.165 98.7885ZM268.644 96.2285H281.572L315.876 46.8205H317.156V96.2285H327.78V31.5885H314.852L280.42 81.1245H279.268V31.5885H268.644V96.2285ZM367.682 99.3005C386.498 99.3005 399.81 85.9885 399.81 66.9165C399.81 48.1005 388.29 34.1485 369.474 34.1485C359.746 34.1485 352.322 37.9885 348.098 45.0285H346.818C348.098 22.7565 353.986 16.2285 373.058 16.2285C388.546 16.2285 395.97 11.3645 395.97 0.228508H386.626C386.626 4.58051 382.402 6.24451 372.034 6.24451C343.49 6.24451 335.554 19.4285 335.554 66.9165C335.554 85.9885 348.866 99.3005 367.682 99.3005ZM367.682 89.7005C355.138 89.7005 346.178 79.9725 346.178 66.5325C346.178 52.8365 355.394 43.7485 367.682 43.7485C380.354 43.7485 389.186 53.2205 389.186 66.5325C389.186 79.9725 380.354 89.7005 367.682 89.7005ZM436.756 98.7885C456.98 98.7885 471.444 84.3245 471.444 63.8445C471.444 43.4925 456.98 29.0285 436.756 29.0285C416.404 29.0285 402.068 43.4925 402.068 63.8445C402.068 84.3245 416.404 98.7885 436.756 98.7885ZM436.756 89.1885C422.676 89.1885 412.692 78.5645 412.692 63.8445C412.692 49.2525 422.676 38.6285 436.756 38.6285C450.708 38.6285 460.82 49.2525 460.82 63.8445C460.82 78.5645 450.708 89.1885 436.756 89.1885ZM523.489 98.7885C538.593 98.7885 549.473 90.4685 549.473 78.3085C549.473 70.3725 544.737 64.6125 537.057 62.9485V61.6685C543.713 60.0045 547.681 55.3965 547.681 48.3565C547.681 36.8365 537.057 29.0285 522.593 29.0285C506.977 29.0285 495.969 38.2445 496.097 51.0445H506.337C506.337 43.7485 512.865 38.6285 522.337 38.6285C531.041 38.6285 537.313 42.7245 537.313 48.8685C537.313 54.2445 532.449 57.9565 525.665 57.9565H514.017V67.5565H525.537C533.217 67.5565 538.849 70.8845 538.849 77.5405C538.849 84.4525 532.449 89.1885 523.361 89.1885C512.993 89.1885 505.697 83.0445 505.697 74.4685H495.073C495.073 88.5485 506.977 98.7885 523.489 98.7885ZM572.017 98.2765C582.385 98.2765 589.937 94.1805 594.545 86.7565H595.697V96.2285H606.321V53.3485C606.321 38.6285 595.697 29.1565 578.929 29.1565C562.673 29.1565 552.049 37.8605 552.049 51.5565H562.801C562.673 43.4925 569.073 38.7565 578.801 38.7565C589.425 38.7565 595.697 44.3885 595.697 53.0925V55.6525L577.777 57.8285C558.577 60.0045 548.849 68.4525 548.849 79.8445C548.849 90.9805 558.065 98.2765 572.017 98.2765ZM573.553 89.4445C564.849 89.4445 559.473 85.7325 559.473 79.5885C559.473 73.5725 564.593 68.4525 577.777 66.7885L595.697 64.7405V70.5005C595.697 81.3805 586.737 89.4445 573.553 89.4445ZM635.599 96.2285H668.495C681.039 96.2285 689.871 88.5485 689.871 77.5405C689.871 69.3485 684.879 64.3565 678.095 62.9485V61.6685C683.599 59.7485 687.951 54.6285 687.951 47.7165C687.951 38.5005 679.631 31.5885 667.983 31.5885H635.599V96.2285ZM646.223 57.8285V40.6765H666.831C672.975 40.6765 677.455 44.6445 677.455 49.3805C677.455 54.1165 672.975 57.8285 666.831 57.8285H646.223ZM646.223 87.1405V67.0445H666.703C674.127 67.0445 679.247 71.1405 679.247 76.7725C679.247 82.4045 674.127 87.1405 666.703 87.1405H646.223ZM694.414 96.2285H705.038V68.3245H742.798V96.2285H753.422V31.5885H742.798V58.7245H705.038V31.5885H694.414V96.2285ZM762.479 96.2285H775.407L809.711 46.8205H810.991V96.2285H821.615V31.5885H808.687L774.255 81.1245H773.103V31.5885H762.479V96.2285ZM830.669 96.2285H841.293V46.4365H842.445L865.485 96.2285H874.957L897.997 46.4365H899.277V96.2285H909.901V31.5885H894.413L870.733 82.9165H869.453L846.029 31.5885H830.669V96.2285ZM937.032 98.2765C947.4 98.2765 954.952 94.1805 959.56 86.7565H960.712V96.2285H971.336V53.3485C971.336 38.6285 960.712 29.1565 943.944 29.1565C927.688 29.1565 917.064 37.8605 917.064 51.5565H927.816C927.688 43.4925 934.088 38.7565 943.816 38.7565C954.44 38.7565 960.712 44.3885 960.712 53.0925V55.6525L942.792 57.8285C923.592 60.0045 913.864 68.4525 913.864 79.8445C913.864 90.9805 923.08 98.2765 937.032 98.2765ZM938.568 89.4445C929.864 89.4445 924.488 85.7325 924.488 79.5885C924.488 73.5725 929.608 68.4525 942.792 66.7885L960.712 64.7405V70.5005C960.712 81.3805 951.752 89.4445 938.568 89.4445ZM979.174 96.2285H989.798V68.3245H1027.56V96.2285H1038.18V31.5885H1027.56V58.7245H989.798V31.5885H979.174V96.2285ZM1047.24 96.2285H1060.17L1094.47 46.8205H1095.75V96.2285H1106.38V31.5885H1093.45L1059.02 81.1245H1057.86V31.5885H1047.24V96.2285ZM1147.05 98.7885C1161.38 98.7885 1173.03 92.1325 1178.15 81.1245L1169.32 76.6445C1165.35 84.3245 1156.9 89.1885 1147.17 89.1885C1134.12 89.1885 1124.65 80.4845 1123.11 67.4285H1180.33C1180.45 66.0205 1180.45 64.4845 1180.45 63.2045C1180.45 43.3645 1166.12 29.0285 1146.41 29.0285C1126.44 29.0285 1112.1 43.3645 1112.1 63.0765C1112.1 83.8125 1126.82 98.7885 1147.05 98.7885ZM1123.24 58.0845C1125.03 46.4365 1133.99 38.6285 1146.02 38.6285C1158.18 38.6285 1167.4 46.4365 1169.19 58.0845H1123.24Z" fill="#FCFBFD"/>
</svg>
