<svg width="21" height="18" viewBox="0 0 21 18" fill="none" xmlns="http://www.w3.org/2000/svg">
<path d="M9.49126 0.330566H10.3876C10.4424 0.330566 10.4949 0.351073 10.5337 0.387574C10.5724 0.424075 10.5942 0.473581 10.5942 0.525201V17.0069C10.5942 17.0585 10.5724 17.108 10.5337 17.1445C10.4949 17.181 10.4424 17.2015 10.3876 17.2015H9.49126C8.31567 17.2015 7.15161 16.9833 6.06557 16.5592C4.97952 16.1351 3.99278 15.5136 3.16171 14.73C2.33064 13.9465 1.67153 13.0163 1.22203 11.9927C0.77253 10.969 0.541451 9.87193 0.541993 8.7641V8.7641C0.541993 6.52739 1.48486 4.38228 3.16317 2.80069C4.84148 1.2191 7.11776 0.330566 9.49126 0.330566V0.330566Z" fill="#F2F2F2"/>
<path d="M20.1755 0.332031H13.0603C12.9439 0.332031 12.8496 0.420915 12.8496 0.530559V7.51797C12.8496 7.62761 12.9439 7.7165 13.0603 7.7165H20.1755C20.2919 7.7165 20.3862 7.62761 20.3862 7.51797V0.530559C20.3862 0.420915 20.2919 0.332031 20.1755 0.332031Z" fill="#F2F2F2"/>
<path d="M20.1755 9.75488H13.0603C12.9439 9.75488 12.8496 9.84377 12.8496 9.95341V16.9973C12.8496 17.1069 12.9439 17.1958 13.0603 17.1958H20.1755C20.2919 17.1958 20.3862 17.1069 20.3862 16.9973V9.95341C20.3862 9.84377 20.2919 9.75488 20.1755 9.75488Z" fill="#F2F2F2"/>
</svg>
