<svg width="334" height="740" viewBox="0 0 334 740" fill="none" xmlns="http://www.w3.org/2000/svg">
<g clip-path="url(#clip0_422_37279)">
<path opacity="0.5" d="M149.501 454L150.427 453.636L150.427 453.636L149.501 454ZM189.841 467.8L189.005 467.245L189.005 467.245L189.841 467.8ZM-55.5944 261.923L-54.6063 261.796L-54.6052 261.804L-55.5944 261.923ZM130.639 411.132L131.599 410.871L130.639 411.132ZM150.427 453.636C153.828 462.179 160.35 471.157 169.016 480.612C177.674 490.059 188.414 499.922 200.189 510.246C223.709 530.867 251.358 553.322 274.427 577.76C297.494 602.197 316.124 628.758 321.507 657.678C326.904 686.673 318.954 717.85 289.269 751.402L287.773 750.061C317.14 716.868 324.808 686.294 319.547 658.028C314.272 629.688 295.968 603.479 272.986 579.132C250.005 554.787 222.489 532.444 198.887 511.751C187.101 501.418 176.292 491.495 167.555 481.963C158.827 472.44 152.112 463.247 148.576 454.364L150.427 453.636ZM190.678 468.354C164.35 508.824 111.953 531.491 61.3187 506.653C10.7538 481.848 -37.6256 409.861 -56.5836 262.041L-54.6052 261.804C-35.6735 409.42 12.554 480.509 62.179 504.852C111.735 529.162 163.111 507.049 189.005 467.245L190.678 468.354ZM148.576 454.364C139.287 431.032 132.045 411.235 128.411 401.868C127.497 399.513 126.82 397.841 126.395 396.925C126.29 396.697 126.207 396.532 126.145 396.421C126.06 396.269 126.068 396.317 126.159 396.4C126.191 396.429 126.27 396.496 126.392 396.552C126.519 396.609 126.748 396.676 127.023 396.605C127.592 396.459 127.7 395.938 127.702 395.929C127.735 395.791 127.709 395.732 127.731 395.914C127.798 396.49 128.123 397.934 128.771 400.441C129.411 402.915 130.345 406.355 131.599 410.871L129.678 411.392C128.424 406.874 127.485 403.419 126.841 400.927C126.205 398.467 125.836 396.872 125.749 396.127C125.732 395.979 125.701 395.697 125.763 395.44C125.78 395.371 125.91 394.817 126.51 394.663C126.8 394.588 127.047 394.658 127.193 394.724C127.335 394.788 127.435 394.87 127.491 394.92C127.676 395.089 127.81 395.324 127.883 395.455C127.98 395.628 128.086 395.844 128.201 396.092C128.659 397.077 129.358 398.81 130.268 401.156C133.929 410.59 141.136 430.297 150.427 453.636L148.576 454.364ZM131.599 410.871C133.356 417.2 137.991 423.63 144.045 429.818C150.084 435.991 157.449 441.838 164.539 447.014C171.653 452.208 178.38 456.65 183.289 460.133C185.717 461.856 187.709 463.35 189.017 464.555C189.663 465.151 190.202 465.729 190.535 466.271C190.838 466.765 191.177 467.587 190.678 468.354L189.005 467.245C188.833 467.51 189.052 467.657 188.84 467.311C188.657 467.013 188.286 466.588 187.677 466.027C186.475 464.92 184.58 463.491 182.15 461.768C177.345 458.358 170.477 453.816 163.377 448.633C156.253 443.431 148.784 437.508 142.63 431.217C136.491 424.942 131.572 418.214 129.678 411.392L131.599 410.871ZM-56.5825 262.05C-59.9201 237.665 -57.4966 201.696 -39.2762 173.087C-20.9976 144.387 13.0647 123.274 72.5781 128.501L72.4243 130.499C13.5376 125.326 -19.7652 146.187 -37.5931 174.18C-55.4792 202.264 -57.9035 237.707 -54.6063 261.796L-56.5825 262.05ZM72.5781 128.501C131.7 133.694 168.35 127.936 190.132 118.725C211.931 109.506 218.66 96.9349 218.504 88.5086L220.498 88.4914C220.676 98.0651 213.104 111.194 190.921 120.575C168.719 129.963 131.702 135.706 72.4243 130.499L72.5781 128.501Z" fill="#E8E7FA" fill-opacity="0.3"/>
</g>
<defs>
<clipPath id="clip0_422_37279">
<rect width="335" height="740" fill="white" transform="translate(-1)"/>
</clipPath>
</defs>
</svg>
