<svg width="346" height="244" viewBox="0 0 346 244" fill="none" xmlns="http://www.w3.org/2000/svg">
<g clip-path="url(#clip0_422_37281)">
<path opacity="0.5" d="M256.189 86.3863L257.096 86.7938L256.189 86.3863ZM277.132 61.3325L276.314 61.9135L277.132 61.3325ZM292.023 129.28L291.075 128.978L292.023 129.28ZM257.096 86.7938C261.089 77.9705 268.196 68.4827 277.397 58.3488C286.591 48.2233 297.824 37.5084 310.022 26.2234C334.392 3.67609 362.605 -21.1367 385.786 -47.8722C408.963 -74.6028 427.23 -103.386 431.592 -133.933C435.964 -164.553 426.34 -196.76 394.13 -230.235L392.69 -228.834C424.563 -195.708 433.886 -164.091 429.617 -134.198C425.339 -104.232 407.378 -75.8124 384.288 -49.181C361.201 -22.5545 333.107 2.1535 308.679 24.7543C296.477 36.0434 285.188 46.8093 275.93 57.0051C266.68 67.1925 259.406 76.8664 255.282 85.9788L257.096 86.7938ZM277.951 60.7515C249.608 20.1048 191.949 -1.63269 135.226 24.866C78.5261 51.3537 23.0652 125.88 -1.45701 277.082L0.511695 277.386C24.9891 126.459 80.2428 52.7544 136.052 26.683C191.837 0.622659 248.481 21.9986 276.314 61.9135L277.951 60.7515ZM255.282 85.9788C244.265 110.322 250.232 130.804 260.778 140.498C266.041 145.336 272.516 147.528 278.548 145.95C284.604 144.366 289.903 139.067 292.971 129.581L291.075 128.978C288.145 138.038 283.249 142.654 278.064 144.01C272.856 145.372 267.047 143.53 262.132 139.012C252.326 129.997 246.373 110.487 257.096 86.7938L255.282 85.9788ZM292.971 129.581C297.44 115.765 294.331 99.5257 289.849 86.3614C285.359 73.1738 279.414 62.8501 277.951 60.7515L276.314 61.9135C277.66 63.8438 283.525 73.9972 287.961 87.0277C292.405 100.081 295.337 115.801 291.075 128.978L292.971 129.581Z" fill="#E8E7FA" fill-opacity="0.3"/>
<path opacity="0.5" d="M98.2376 205.891C114.128 181.496 137.285 175.557 154.322 178.638C155.337 178.822 156.091 177.426 155.418 176.622C140.154 158.38 141.717 124.957 143.905 107.594C144.032 106.585 142.731 105.964 142.06 106.706C127.831 122.449 107.213 133.464 85.2396 129.501C84.2283 129.319 83.5473 130.661 84.2739 131.41C110.62 158.576 102.234 187.068 96.3626 205.017C95.9904 206.155 97.5887 206.888 98.2376 205.891Z" stroke="#E8E7FA" stroke-opacity="0.3" stroke-width="2" stroke-linecap="round"/>
</g>
<defs>
<clipPath id="clip0_422_37281">
<rect width="346" height="244" fill="white"/>
</clipPath>
</defs>
</svg>
