<svg width="72" height="48" viewBox="0 0 72 48" fill="none" xmlns="http://www.w3.org/2000/svg">
<path fill-rule="evenodd" clip-rule="evenodd" d="M20.4219 33.8347V4H51.5789V33.8347L35.9591 44L20.4219 33.8347ZM45.9569 26.6456C45.6263 26.8109 45.2957 26.8109 44.9651 26.8109C44.304 26.8109 43.7255 26.563 43.5602 25.5712L43.6428 19.9514C43.7255 14.1663 40.2544 12.0175 34.7998 11.9349C32.0726 11.8522 29.2627 12.5134 27.775 13.0093V17.3894C29.5106 16.7283 31.742 16.1498 34.2213 16.1498C37.1139 16.1498 38.5188 17.3894 38.5188 19.125V19.7861C37.2792 19.5382 35.6263 19.2902 34.2213 19.2902C30.585 19.2902 26.2875 20.6126 26.2048 25.0754C26.1222 28.5464 29.0974 30.5299 32.4858 30.5299C35.2131 30.6126 37.2792 29.7861 39.0974 28.4638C39.8412 29.7861 41.2461 30.4473 43.0643 30.4473C44.056 30.4473 45.1304 30.1993 45.9569 29.9514V26.6456ZM33.9734 27.2241C32.1552 27.2241 30.8329 26.2324 30.8329 24.8274C30.8329 22.9266 32.899 22.2655 35.1304 22.2655C36.2874 22.2655 37.6098 22.5134 38.5188 22.7613V25.7365C37.1139 26.8109 35.6263 27.2241 33.9734 27.2241Z" fill="white"/>
</svg>
