<svg width="72" height="48" viewBox="0 0 72 48" fill="none" xmlns="http://www.w3.org/2000/svg">
<g clip-path="url(#clip0_4024_113249)">
<path d="M68.6105 42H3V5H68.6105V42ZM3.61303 41.3825H67.9813V5.61748H3.61303V41.3825Z" fill="white" stroke="white" stroke-width="2"/>
<path d="M22.359 9.37123C14.7445 9.37123 8.5658 15.7735 8.5658 23.6545C8.5658 31.5355 14.7606 37.9378 22.359 37.9378C29.9735 37.9378 36.1522 31.5355 36.1522 23.6545C36.1522 15.7898 29.9735 9.37123 22.359 9.37123ZM22.359 38.6527C14.3573 38.6527 7.83984 31.9255 7.83984 23.6545C7.83984 15.3835 14.3573 8.65625 22.359 8.65625C30.3607 8.65625 36.8782 15.3835 36.8782 23.6545C36.862 31.9255 30.3607 38.6527 22.359 38.6527Z" fill="white" stroke="white"/>
<path d="M43.8136 38.7165V10.0037L40.5388 13.2698H39.5547L44.5235 8.28125V38.7165H43.8136Z" fill="white" stroke="white"/>
<path d="M48.5078 38.5871L48.9434 37.9859C49.3467 37.4497 50.4598 35.906 52.3635 33.306C54.2026 30.7874 55.7997 28.7074 57.2193 26.8713C60.9782 22.0289 63.0592 19.3478 63.0592 16.3254C63.0592 12.4905 60.0102 9.3706 56.2514 9.3706C53.7186 9.3706 51.4116 10.7843 50.234 13.0755L50.2017 13.1567H49.4112L49.5242 12.9455C49.5242 12.9292 49.6371 12.6855 49.6532 12.6855C50.9761 10.1993 53.5089 8.67188 56.2675 8.67188C60.4135 8.67188 63.7852 12.1168 63.7852 16.3416C63.7852 19.6078 61.6719 22.3539 57.8162 27.31L57.7839 27.3425C56.3643 29.1624 54.7672 31.2261 52.9604 33.7285C51.46 35.7922 50.4598 37.1734 49.9436 37.8721H63.7852V38.5871H48.5078V38.5871Z" fill="white" stroke="white"/>
</g>
<defs>
<clipPath id="clip0_4024_113249">
<rect width="65.6105" height="37" fill="white" transform="translate(3 5)"/>
</clipPath>
</defs>
</svg>
