<svg width="1265" height="544" viewBox="0 0 1265 544" fill="none" xmlns="http://www.w3.org/2000/svg">
<g clip-path="url(#clip0_2_58239)">
<path opacity="0.09" d="M717.48 251.639C664.089 332.042 596.844 395.314 531.307 432.622C465.75 469.942 402.029 481.222 355.556 457.894C309.084 434.565 288.458 380.946 292.853 312.924C297.246 244.922 326.646 162.653 380.037 82.2501C433.427 1.84716 500.673 -61.4246 566.209 -98.7332C631.767 -136.053 695.488 -147.333 741.96 -124.005C788.433 -100.676 809.059 -47.0569 804.664 20.9656C800.271 88.9667 770.871 171.236 717.48 251.639Z" stroke="url(#paint0_linear_2_58239)"/>
<path opacity="0.09" d="M399.917 251.639C346.527 332.042 279.281 395.314 213.745 432.622C148.187 469.942 84.4663 481.222 37.9936 457.894C-8.47897 434.565 -29.1046 380.946 -24.7099 312.924C-20.3167 244.922 9.0832 162.653 62.474 82.2501C115.865 1.84716 183.11 -61.4246 248.647 -98.7332C314.204 -136.053 377.925 -147.333 424.398 -124.005C470.87 -100.676 491.496 -47.0569 487.101 20.9656C482.708 88.9667 453.308 171.236 399.917 251.639Z" stroke="url(#paint1_linear_2_58239)"/>
<path opacity="0.09" d="M1035.31 251.639C981.917 332.042 914.672 395.314 849.135 432.622C783.578 469.942 719.857 481.222 673.384 457.894C626.912 434.565 606.286 380.946 610.681 312.924C615.074 244.922 644.474 162.653 697.865 82.2501C751.255 1.84716 818.501 -61.4246 884.038 -98.7332C949.595 -136.053 1013.32 -147.333 1059.79 -124.005C1106.26 -100.676 1126.89 -47.0569 1122.49 20.9656C1118.1 88.9667 1088.7 171.236 1035.31 251.639Z" stroke="url(#paint2_linear_2_58239)"/>
<path opacity="0.09" d="M1352.92 251.639C1299.53 332.042 1232.28 395.314 1166.74 432.622C1101.19 469.942 1037.47 481.222 990.994 457.894C944.521 434.565 923.895 380.946 928.29 312.924C932.683 244.922 962.083 162.653 1015.47 82.2501C1068.86 1.84716 1136.11 -61.4246 1201.65 -98.7332C1267.2 -136.053 1330.93 -147.333 1377.4 -124.005C1423.87 -100.676 1444.5 -47.0569 1440.1 20.9656C1435.71 88.9667 1406.31 171.236 1352.92 251.639Z" stroke="url(#paint3_linear_2_58239)"/>
</g>
<defs>
<linearGradient id="paint0_linear_2_58239" x1="742.237" y1="-124.421" x2="430.712" y2="496.175" gradientUnits="userSpaceOnUse">
<stop stop-color="#F2F2F2"/>
<stop offset="0.5625" stop-color="#F2F2F2" stop-opacity="0.5"/>
<stop offset="1" stop-color="#F2F2F2" stop-opacity="0"/>
</linearGradient>
<linearGradient id="paint1_linear_2_58239" x1="424.674" y1="-124.421" x2="113.149" y2="496.175" gradientUnits="userSpaceOnUse">
<stop stop-color="#F2F2F2"/>
<stop offset="0.5625" stop-color="#F2F2F2" stop-opacity="0.5"/>
<stop offset="1" stop-color="#F2F2F2" stop-opacity="0"/>
</linearGradient>
<linearGradient id="paint2_linear_2_58239" x1="1060.07" y1="-124.421" x2="748.54" y2="496.175" gradientUnits="userSpaceOnUse">
<stop stop-color="#F2F2F2"/>
<stop offset="0.5625" stop-color="#F2F2F2" stop-opacity="0.5"/>
<stop offset="1" stop-color="#F2F2F2" stop-opacity="0"/>
</linearGradient>
<linearGradient id="paint3_linear_2_58239" x1="1377.67" y1="-124.421" x2="1066.15" y2="496.175" gradientUnits="userSpaceOnUse">
<stop stop-color="#F2F2F2"/>
<stop offset="0.5625" stop-color="#F2F2F2" stop-opacity="0.5"/>
<stop offset="1" stop-color="#F2F2F2" stop-opacity="0"/>
</linearGradient>
<clipPath id="clip0_2_58239">
<rect width="1264" height="543" fill="white" transform="translate(0.548828 0.228516)"/>
</clipPath>
</defs>
</svg>
