<svg width="48" height="48" viewBox="0 0 48 48" fill="none" xmlns="http://www.w3.org/2000/svg">
<path d="M0 24C0 10.7452 10.7452 0 24 0C37.2548 0 48 10.7452 48 24C48 37.2548 37.2548 48 24 48C10.7452 48 0 37.2548 0 24Z" fill="#2F14D5"/>
<path d="M22.2764 16.1299H23.1728C23.2276 16.1299 23.2801 16.1504 23.3188 16.1869C23.3576 16.2234 23.3793 16.2729 23.3793 16.3245V32.8062C23.3793 32.8578 23.3576 32.9073 23.3188 32.9438C23.2801 32.9803 23.2276 33.0008 23.1728 33.0008H22.2764C21.1008 33.0008 19.9368 32.7826 18.8507 32.3585C17.7647 31.9344 16.7779 31.3129 15.9469 30.5293C15.1158 29.7458 14.4567 28.8156 14.0072 27.792C13.5577 26.7683 13.3266 25.6713 13.3271 24.5634C13.3271 22.3267 14.27 20.1816 15.9483 18.6C17.6266 17.0184 19.9029 16.1299 22.2764 16.1299V16.1299Z" fill="#F2F2F2"/>
<path d="M32.9607 16.1313H25.8454C25.7291 16.1313 25.6348 16.2202 25.6348 16.3299V23.3173C25.6348 23.4269 25.7291 23.5158 25.8454 23.5158H32.9607C33.077 23.5158 33.1713 23.4269 33.1713 23.3173V16.3299C33.1713 16.2202 33.077 16.1313 32.9607 16.1313Z" fill="#F2F2F2"/>
<path d="M32.9607 25.5542H25.8454C25.7291 25.5542 25.6348 25.6431 25.6348 25.7527V32.7966C25.6348 32.9062 25.7291 32.9951 25.8454 32.9951H32.9607C33.077 32.9951 33.1713 32.9062 33.1713 32.7966V25.7527C33.1713 25.6431 33.077 25.5542 32.9607 25.5542Z" fill="#F2F2F2"/>
</svg>
