<svg width="165" height="136" viewBox="0 0 165 136" fill="none" xmlns="http://www.w3.org/2000/svg">
<path d="M6.69699 127.2C9.09699 127.2 11.197 125.66 11.657 123.5L10.037 123.3C9.61699 124.72 8.27699 125.7 6.69699 125.7C4.63699 125.7 3.09699 124.08 3.09699 121.74C3.07699 119.42 4.65699 117.8 6.71699 117.8C8.25699 117.8 9.63699 118.78 10.017 120.24L11.617 120.02C11.257 117.86 9.17699 116.3 6.69699 116.3C3.65699 116.3 1.43699 118.58 1.43699 121.74C1.41699 124.9 3.63699 127.2 6.69699 127.2ZM13.6031 126.8H18.7431C20.7031 126.8 22.0831 125.6 22.0831 123.88C22.0831 122.6 21.3031 121.82 20.2431 121.6V121.4C21.1031 121.1 21.7831 120.3 21.7831 119.22C21.7831 117.78 20.4831 116.7 18.6631 116.7H13.6031V126.8ZM15.2631 120.8V118.12H18.4831C19.4431 118.12 20.1431 118.74 20.1431 119.48C20.1431 120.22 19.4431 120.8 18.4831 120.8H15.2631ZM15.2631 125.38V122.24H18.4631C19.6231 122.24 20.4231 122.88 20.4231 123.76C20.4231 124.64 19.6231 125.38 18.4631 125.38H15.2631ZM23.3029 126.8H25.3429L28.3629 123.08H30.1229V126.8H31.7829V116.7H27.3029C24.9029 116.7 23.3229 118 23.3229 119.88C23.3229 121.48 24.4029 122.86 26.5229 123.06L23.3029 126.8ZM27.3029 121.58C25.8829 121.58 24.9829 120.9 24.9829 119.88C24.9829 118.86 25.9029 118.2 27.3029 118.2H30.1229V121.58H27.3029ZM38.139 127.2C40.499 127.2 42.199 125.9 42.199 124C42.199 122.76 41.459 121.86 40.259 121.6V121.4C41.299 121.14 41.919 120.42 41.919 119.32C41.919 117.52 40.259 116.3 37.999 116.3C35.559 116.3 33.839 117.74 33.859 119.74H35.459C35.459 118.6 36.479 117.8 37.959 117.8C39.319 117.8 40.299 118.44 40.299 119.4C40.299 120.24 39.539 120.82 38.479 120.82H36.659V122.32H38.459C39.659 122.32 40.539 122.84 40.539 123.88C40.539 124.96 39.539 125.7 38.119 125.7C36.499 125.7 35.359 124.74 35.359 123.4H33.699C33.699 125.6 35.559 127.2 38.139 127.2ZM46.7715 127.12C48.3915 127.12 49.5715 126.48 50.2915 125.32H50.4715V126.8H52.1315V120.1C52.1315 117.8 50.4715 116.32 47.8515 116.32C45.3115 116.32 43.6515 117.68 43.6515 119.82H45.3315C45.3115 118.56 46.3115 117.82 47.8315 117.82C49.4915 117.82 50.4715 118.7 50.4715 120.06V120.46L47.6715 120.8C44.6715 121.14 43.1515 122.46 43.1515 124.24C43.1515 125.98 44.5915 127.12 46.7715 127.12ZM47.0115 125.74C45.6515 125.74 44.8115 125.16 44.8115 124.2C44.8115 123.26 45.6115 122.46 47.6715 122.2L50.4715 121.88V122.78C50.4715 124.48 49.0715 125.74 47.0115 125.74ZM56.9662 126.8H58.6262V118.2H62.2662V116.7H53.3062V118.2H56.9662V126.8ZM63.6304 126.8H68.0704C70.5104 126.8 72.1104 125.42 72.1104 123.28C72.1104 121.2 70.5104 119.8 68.0704 119.8H65.2904V116.7H63.6304V126.8ZM65.2904 125.3V121.3H68.0704C69.5104 121.3 70.4704 122.08 70.4704 123.3C70.4704 124.52 69.5304 125.3 68.0704 125.3H65.2904ZM78.5712 127.2C80.9712 127.2 83.0712 125.66 83.5312 123.5L81.9112 123.3C81.4912 124.72 80.1512 125.7 78.5712 125.7C76.5112 125.7 74.9712 124.08 74.9712 121.74C74.9512 119.42 76.5312 117.8 78.5912 117.8C80.1312 117.8 81.5112 118.78 81.8912 120.24L83.4912 120.02C83.1312 117.86 81.0512 116.3 78.5712 116.3C75.5312 116.3 73.3112 118.58 73.3112 121.74C73.2912 124.9 75.5112 127.2 78.5712 127.2ZM84.9373 126.8H86.9773L89.9973 123.08H91.7573V126.8H93.4173V116.7H88.9373C86.5373 116.7 84.9573 118 84.9573 119.88C84.9573 121.48 86.0373 122.86 88.1573 123.06L84.9373 126.8ZM88.9373 121.58C87.5173 121.58 86.6173 120.9 86.6173 119.88C86.6173 118.86 87.5373 118.2 88.9373 118.2H91.7573V121.58H88.9373ZM105.013 127.2C107.413 127.2 109.513 125.66 109.973 123.5L108.353 123.3C107.933 124.72 106.593 125.7 105.013 125.7C102.953 125.7 101.413 124.08 101.413 121.74C101.393 119.42 102.973 117.8 105.033 117.8C106.573 117.8 107.953 118.78 108.333 120.24L109.933 120.02C109.573 117.86 107.493 116.3 105.013 116.3C101.973 116.3 99.7534 118.58 99.7534 121.74C99.7334 124.9 101.953 127.2 105.013 127.2ZM116.319 126.8H117.979V122.44H123.879V126.8H125.539V116.7H123.879V120.94H117.979V116.7H116.319V126.8ZM130.825 127.12C132.445 127.12 133.625 126.48 134.345 125.32H134.525V126.8H136.185V120.1C136.185 117.8 134.525 116.32 131.905 116.32C129.365 116.32 127.705 117.68 127.705 119.82H129.385C129.365 118.56 130.365 117.82 131.885 117.82C133.545 117.82 134.525 118.7 134.525 120.06V120.46L131.725 120.8C128.725 121.14 127.205 122.46 127.205 124.24C127.205 125.98 128.645 127.12 130.825 127.12ZM131.065 125.74C129.705 125.74 128.865 125.16 128.865 124.2C128.865 123.26 129.665 122.46 131.725 122.2L134.525 121.88V122.78C134.525 124.48 133.125 125.74 131.065 125.74ZM138.459 126.8H140.119V119.02H140.299L143.899 126.8H145.379L148.979 119.02H149.179V126.8H150.839V116.7H148.419L144.719 124.72H144.519L140.859 116.7H138.459V126.8ZM153.309 126.8H155.329L160.689 119.08H160.889V126.8H162.549V116.7H160.529L155.149 124.44H154.969V116.7H153.309V126.8Z" fill="#F2F2F2"/>
<path d="M77.7615 0.289551L81.8928 0.289551C82.1452 0.289551 82.3873 0.384061 82.5659 0.552289C82.7444 0.720518 82.8447 0.948684 82.8447 1.1866V77.1483C82.8447 77.3863 82.7444 77.6144 82.5659 77.7827C82.3873 77.9509 82.1452 78.0454 81.8928 78.0454H77.7615C72.3434 78.0454 66.9784 77.0394 61.973 75.085C56.9676 73.1305 52.4198 70.2658 48.5895 66.6546C44.7593 63.0434 41.7215 58.7564 39.6498 54.0385C37.5781 49.3206 36.5131 44.2644 36.5156 39.1585C36.5156 28.8498 40.8612 18.9633 48.5963 11.674C56.3314 4.38466 66.8224 0.289551 77.7615 0.289551V0.289551Z" fill="#FAF2E5"/>
<path d="M127.002 0.294922L94.2092 0.294922C93.673 0.294922 93.2383 0.704576 93.2383 1.20991V33.4139C93.2383 33.9192 93.673 34.3289 94.2092 34.3289H127.002C127.539 34.3289 127.973 33.9192 127.973 33.4139V1.20991C127.973 0.704576 127.539 0.294922 127.002 0.294922Z" fill="#FAF2E5"/>
<path d="M127.002 43.7241H94.2092C93.673 43.7241 93.2383 44.1338 93.2383 44.6391V77.1032C93.2383 77.6085 93.673 78.0182 94.2092 78.0182H127.002C127.539 78.0182 127.973 77.6085 127.973 77.1032V44.6391C127.973 44.1338 127.539 43.7241 127.002 43.7241Z" fill="#FAF2E5"/>
</svg>
