<svg width="1954" height="53" viewBox="0 0 1954 53" fill="none" xmlns="http://www.w3.org/2000/svg">
<path d="M71.6253 29.3099C72.1156 27.1432 73.6923 26.1999 75.5038 26.1999C77.3153 26.1999 79.0915 27.1365 79.3303 29.3099H71.6253ZM81.7604 36.1567L82.0187 33.1747C77.7605 35.577 72.5018 35.914 71.7037 31.7089H82.457V30.3779C82.3262 25.8492 78.9672 23.612 75.5038 23.612C71.962 23.612 68.4986 25.9301 68.4986 30.6439C68.4986 37.7805 75.9421 39.2433 81.7604 36.1567ZM55.9826 29.3099C56.4732 27.1432 58.0496 26.1999 59.8615 26.1999C61.6698 26.1999 63.4492 27.1365 63.688 29.3099H55.9826ZM66.1144 36.1567L66.3728 33.1747C62.1149 35.577 56.8559 35.914 56.0578 31.7089H66.811V30.3779C66.6802 25.8492 63.3216 23.612 59.8582 23.612C56.3161 23.612 52.8527 25.9301 52.8527 30.6439C52.8527 37.7805 60.2997 39.2433 66.1144 36.1567ZM87.729 18.0726H84.7559V37.3022H87.729V31.3887C88.8671 31.3887 89.7468 31.3887 90.6494 32.241C91.915 33.5721 92.8471 35.2768 93.7009 37.3018H97.1119C96.2845 34.5859 93.6745 30.3508 90.9077 30.3508V29.95C93.1839 29.95 95.9738 26.2737 96.7227 23.9861H93.5961C92.8731 25.5832 91.915 27.0489 90.597 28.2483C89.7172 29.1006 88.6575 29.0739 87.729 29.0739V18.0726ZM102.783 26.8871V21.934H107.178C109.53 21.934 110.436 23.1604 110.436 24.4106C110.436 25.637 109.53 26.8871 107.178 26.8871H102.783ZM102.783 34.502V29.5489H107.901C110.253 29.5489 111.158 30.7753 111.158 32.0255C111.158 33.2519 110.203 34.502 107.849 34.502H102.783ZM107.823 19.1372H99.6792V37.2985H108.597C112.398 37.2985 114.311 35.088 114.311 32.4262C114.311 30.081 112.656 28.4063 109.84 28.2178V27.7933C112.529 27.2879 113.536 25.5561 113.536 23.7467C113.536 21.2939 111.675 19.1372 107.823 19.1372ZM116.597 23.9827V37.2988H119.57V28.3529C120.682 27.2074 122.127 26.8096 124.482 26.8096H125.673L125.44 23.7467H124.485C122.52 23.7467 120.659 24.6262 119.936 26.4626H119.573V23.9827H116.597ZM129.296 30.6406C129.296 27.7124 130.909 26.2199 133.08 26.2199C134.836 26.2199 136.063 26.7792 137.149 27.925V33.3565C136.063 34.502 134.836 35.0616 133.08 35.0616C130.912 35.0616 129.296 33.5721 129.296 30.6406ZM137.152 23.9827V25.9268H136.815C135.651 24.3568 134.297 23.5582 132.305 23.5582C128.247 23.5582 126.219 26.9409 126.219 30.6406C126.219 34.3402 128.247 37.7234 132.305 37.7234C134.297 37.7234 135.651 36.9248 136.815 35.3548H137.152V37.2988H140.125V23.9827H137.152ZM143.702 37.2988H146.676V23.9827H143.702V37.2988ZM145.204 22.2813C146.443 22.2813 147.271 21.429 147.271 20.1517C147.271 18.8745 146.443 18.0221 145.204 18.0221C143.964 18.0221 143.137 18.8745 143.137 20.1517C143.133 21.4286 143.961 22.2813 145.204 22.2813ZM153.23 23.9827H150.257V37.2988H153.23V27.925C154.315 26.8333 155.515 26.2199 156.961 26.2199C158.537 26.2199 160.022 27.1265 160.022 29.842V37.2988H162.995V29.1515C162.995 25.7145 161.432 23.5582 158.204 23.5582C156.448 23.5582 154.678 24.3297 153.514 26.0348H153.23V23.9827ZM165.49 27.8475C165.49 30.2161 167.636 31.1493 169.291 31.5234L173.091 32.349C174.33 32.6151 174.899 32.9891 174.899 33.6259C174.899 34.5863 173.608 35.0379 171.721 35.0379C169.497 35.0379 166.939 34.1584 165.516 33.3598L165.775 36.3689C167.43 37.2484 169.575 37.7267 171.563 37.7267C175.259 37.7267 178 36.4765 178 33.4912C178 31.0684 176.034 30.1623 173.735 29.6569L170.272 28.9121C169.186 28.6728 168.591 28.2987 168.591 27.6619C168.591 26.7554 169.755 26.2771 171.616 26.2771C173.709 26.2771 175.959 27.0756 177.146 27.7428L176.888 24.7338C175.465 23.989 173.63 23.5612 171.77 23.5612C168.388 23.5578 165.49 24.7846 165.49 27.8475ZM42.0308 27.2679V30.1894H47.5449V33.4612C46.0567 34.3473 44.5198 34.7518 43.058 34.7518C39.5617 34.7518 36.383 32.4132 36.383 28.2486C36.383 24.084 39.5649 21.7455 43.058 21.7455C45.3012 21.7455 47.6887 22.6787 49.8539 24.559L49.5335 20.8427C47.4401 19.4307 45.1379 18.7635 42.7079 18.7635C37.8481 18.7635 33.0927 22.1195 33.0927 28.2453C33.0927 34.371 37.8481 37.7271 42.7079 37.7271C45.1379 37.7271 47.6724 37.1678 50.5408 34.9844V27.2679H42.0308ZM10.0076 18.6648L9.797 16.7007C6.9695 15.8116 3.95484 18.0191 2.12126 20.5206C1.07459 21.9741 0.20892 23.5868 1.10096 25.0403C-0.366987 26.4396 -0.366987 29.5329 1.10096 30.9593C0.20892 32.4129 1.07459 34.0256 2.12126 35.4791C3.90534 37.8996 6.18296 39.4882 8.53933 39.4882C10.9748 39.4882 12.9399 37.4161 12.9399 34.8872V32.9773C12.9399 31.6859 12.4692 30.959 11.5511 29.9652L10.1623 28.4304C10.1886 28.2954 10.1886 28.187 10.1886 28.0553C10.1886 27.0074 9.45449 26.2533 8.43419 26.2533C7.46664 26.2533 6.70611 27.0074 6.70611 28.0553C6.70611 28.9986 7.46628 29.776 8.43419 29.776C8.56571 29.776 8.6712 29.7489 8.74672 29.7489L10.1883 31.3108C10.7378 31.9293 11.0012 32.3858 11.0012 33.1398V34.8876C11.0012 37.068 9.27312 37.9805 7.36114 37.2539C6.07746 36.7704 4.7674 35.7733 3.56283 34.1606C2.48978 32.6259 2.72354 31.9026 3.32582 31.4699C3.84898 31.149 4.39887 31.1994 5.3433 32.4132C5.29381 32.5721 5.26743 32.7613 5.26743 32.9505C5.26743 33.9443 6.05397 34.7525 6.99551 34.7525C7.93705 34.7525 8.69722 33.9447 8.69722 32.9505C8.69722 31.9839 7.93705 31.1757 6.99551 31.1757H6.864C5.7382 29.6951 4.37575 28.6742 2.48978 29.6951C1.80838 29.0765 1.91388 26.869 2.48978 26.3045C4.37575 27.3254 5.7382 26.3045 6.864 24.8239H6.99551C7.93669 24.8239 8.69722 24.0161 8.69722 23.0491C8.69722 22.0553 7.93705 21.2471 6.99551 21.2471C6.05397 21.2471 5.26743 22.055 5.26743 23.0491C5.26588 23.2314 5.29259 23.4127 5.34655 23.5864C4.40538 24.7965 3.85223 24.8507 3.32908 24.5297C2.72679 24.1003 2.48978 23.3734 3.56609 21.839C5.05716 19.8478 7.62489 17.6711 10.0076 18.6648ZM13.0685 37.3352L13.2792 39.2993C16.1063 40.1884 19.1213 37.9809 20.9546 35.4794C22.0012 34.0259 22.8669 32.4132 21.9749 30.9597C23.4428 29.56 23.4428 26.4671 21.9749 25.0407C22.8669 23.5871 22.0012 21.9744 20.9546 20.5209C19.1708 18.1 16.8932 16.5148 14.5365 16.5148C12.101 16.5148 10.1359 18.5869 10.1359 21.1158V23.0257C10.1359 24.3171 10.6067 25.044 11.5247 26.0377L12.9135 27.5725C12.8872 27.7076 12.8872 27.8159 12.8872 27.9477C12.8872 28.9956 13.6213 29.7496 14.6413 29.7496C15.6088 29.7496 16.3693 28.9956 16.3693 27.9477C16.3693 27.0044 15.6092 26.227 14.6413 26.227C14.5098 26.227 14.4043 26.2541 14.3287 26.2541L12.8872 24.6922C12.3376 24.0736 12.0743 23.6172 12.0743 22.8635V21.1158C12.0743 18.9353 13.8023 18.0225 15.7147 18.7494C16.9984 19.2329 18.3084 20.23 19.513 21.8427C20.586 23.3775 20.3523 24.1007 19.75 24.5334C19.2268 24.8544 18.6769 24.8039 17.7325 23.5901C17.7864 23.4164 17.8131 23.2351 17.8116 23.0528C17.8116 22.059 17.0251 21.2508 16.0836 21.2508C15.142 21.2508 14.3819 22.0587 14.3819 23.0528C14.3819 24.0194 15.142 24.8277 16.0836 24.8277H16.2151C17.3409 26.3083 18.7033 27.3291 20.5893 26.3083C21.2707 26.9268 21.1652 29.1344 20.5893 29.6988C18.7033 28.678 17.3409 29.6988 16.2151 31.1794H16.0836C15.142 31.1794 14.3819 31.9872 14.3819 32.9543C14.3819 33.948 15.142 34.7562 16.0836 34.7562C17.0251 34.7562 17.8116 33.9484 17.8116 32.9543C17.8131 32.772 17.7864 32.5906 17.7325 32.4169C18.6737 31.2069 19.2268 31.1527 19.75 31.4737C20.3523 31.903 20.5893 32.6299 19.513 34.1647C18.0187 36.1526 15.4513 38.3289 13.0685 37.3352Z" fill="#34334A"/>
<path fill-rule="evenodd" clip-rule="evenodd" d="M279.187 26.3966V26.1896H280.595C284.052 26.0997 286.421 24.273 286.421 21.6095C286.421 18.4602 283.751 16.6875 279.187 16.6875H267.745V18.0192C268.915 18.1092 269.693 18.3702 270.086 18.7751C270.443 19.207 270.626 20.0528 270.626 21.3576V32.3175C270.626 33.5952 270.443 34.432 270.086 34.873C269.693 35.3049 268.915 35.5658 267.745 35.6558V36.9875H279.699C284.592 36.9875 287.382 34.783 287.382 31.4176C287.382 28.4032 284.766 26.4056 280.595 26.4056H279.187V26.3966ZM277.595 17.9922C280.476 17.9922 281.647 19.207 281.647 21.8795C281.647 24.318 280.202 25.6767 277.687 25.6767H275.345V17.9922H277.595ZM276.717 35.6828C275.784 35.6828 275.336 35.2148 275.336 34.2881V26.9815H277.915C280.796 26.9815 282.388 28.5742 282.388 31.3906C282.388 34.0541 280.705 35.6828 277.796 35.6828H276.717ZM296.464 33.8561C293.82 33.8561 292.019 32.0834 291.689 28.808H301.476C301.476 24.3989 298.951 22.0234 295.083 22.0234C292.887 22.0234 291.177 22.7522 289.915 24.2279C288.653 25.7037 288.022 27.6473 288.022 30.0588C288.022 32.1733 288.68 33.9191 290.007 35.2778C291.296 36.6364 293.006 37.3383 295.083 37.3383C296.884 37.3383 298.329 36.8704 299.372 35.9166C300.424 34.9628 301.147 33.8561 301.476 32.5783L300.397 32.0565C299.528 33.2441 298.238 33.8561 296.464 33.8561ZM294.397 23.4721C295.988 23.4721 296.802 24.7768 296.802 27.3593H291.635C291.689 24.7768 292.622 23.4721 294.397 23.4721ZM313.951 32.2813C313.951 35.4127 311.491 37.3562 307.558 37.3562C305.482 37.3562 303.744 36.8974 302.326 35.9705V32.2003H303.707C304.219 34.3778 305.994 35.6826 308.125 35.6826C309.533 35.6826 310.585 35.1606 310.585 33.9999C310.585 33.2171 310.1 32.6412 309.113 32.2633L305.93 31.0125C303.552 30.1397 302.354 28.754 302.354 26.8373C302.354 23.8499 304.85 21.9963 308.481 21.9963C310.073 21.9963 312.149 22.4822 313.32 23.0941V26.4684H312.003C311.372 24.5338 309.808 23.544 307.978 23.544C306.57 23.544 305.756 24.1559 305.756 25.0827C305.756 25.8655 306.268 26.4774 307.256 26.8553L310.86 28.2771C312.927 29.0599 313.951 30.4006 313.951 32.2813ZM320.317 37.3294C322.118 37.3294 323.774 36.5737 325.237 35.0708L324.67 34.0811C324.039 34.4861 323.381 34.693 322.75 34.693C321.186 34.693 320.408 33.7662 320.408 31.9395V24.0211H324.277V22.3744H320.408V18.2532H319.594C317.765 20.3138 315.808 21.9335 313.677 23.1212V24.0211H316.018V32.7764C316.027 35.8267 317.463 37.3294 320.317 37.3294ZM347.435 26.8375C347.435 33.2173 343.2 36.9875 335.728 36.9875H325.704V35.6558C326.875 35.5658 327.652 35.3049 328.045 34.873C328.402 34.432 328.585 33.5952 328.585 32.3175V21.3576C328.585 20.0528 328.402 19.207 328.036 18.7751C327.643 18.3702 326.865 18.1092 325.695 18.0192V16.6875H335.664C343.146 16.6875 347.435 20.4578 347.435 26.8375ZM333.304 33.9641C333.304 34.9179 333.752 35.3858 334.685 35.3858V35.3948H335.435C339.972 35.3948 342.222 32.5515 342.222 26.8375C342.222 21.1236 339.88 18.2802 335.17 18.2802H333.304V33.9641ZM361.968 35.2418C363.468 33.8471 364.218 31.9934 364.218 29.7079C364.218 27.3863 363.468 25.5327 361.968 24.111C360.441 22.7162 358.548 22.0234 356.298 22.0234C354.048 22.0234 352.154 22.7162 350.654 24.111C349.127 25.5327 348.377 27.3863 348.377 29.7079C348.377 32.0025 349.127 33.8561 350.654 35.2418C352.154 36.6364 354.048 37.3294 356.298 37.3294C358.538 37.3294 360.432 36.6364 361.968 35.2418ZM353.883 34.342C353.371 33.3521 353.106 31.8225 353.106 29.6989C353.106 25.4337 354.093 23.4901 356.288 23.4901C358.447 23.4901 359.444 25.4877 359.444 29.6989C359.444 31.8134 359.206 33.3521 358.694 34.342C358.182 35.3588 357.404 35.8536 356.288 35.8536C355.173 35.8536 354.395 35.3588 353.883 34.342ZM378.312 32.5155C377.626 35.3319 375.495 37.3295 372.13 37.3295C369.999 37.3295 368.288 36.6366 366.962 35.2419C365.636 33.8471 364.977 32.0836 364.977 29.9059C364.977 27.7014 365.7 25.8477 367.172 24.309C368.645 22.7703 370.593 22.0145 373.026 22.0145C374.736 22.0145 376.328 22.3384 377.736 23.0043V27.2335H376.236C375.788 25.2359 374.526 24.219 372.486 24.219C370.053 24.219 368.672 25.9017 368.672 28.5382C368.672 31.7866 370.593 33.8471 373.684 33.8471C375.34 33.8471 376.538 33.2443 377.261 31.9935L378.312 32.5155ZM384.577 37.3294C386.379 37.3294 388.035 36.5737 389.498 35.0708L388.931 34.0811C388.3 34.4861 387.641 34.693 387.01 34.693C385.446 34.693 384.669 33.7662 384.669 31.9395V24.0211H388.538V22.3744H384.669V18.2532H383.855C382.026 20.3138 380.068 21.9335 377.937 23.1212V24.0211H380.279V32.7764C380.288 35.8267 381.724 37.3294 384.577 37.3294ZM404.599 29.7079C404.599 31.9934 403.849 33.8471 402.348 35.2418C400.822 36.6364 398.927 37.3294 396.678 37.3294C394.428 37.3294 392.535 36.6364 391.035 35.2418C389.507 33.8561 388.757 32.0025 388.757 29.7079C388.757 27.3863 389.507 25.5327 391.035 24.111C392.535 22.7162 394.428 22.0234 396.678 22.0234C398.927 22.0234 400.822 22.7162 402.348 24.111C403.849 25.5327 404.599 27.3863 404.599 29.7079ZM393.495 29.6989C393.495 31.8225 393.76 33.3521 394.273 34.342C394.785 35.3588 395.562 35.8536 396.678 35.8536C397.794 35.8536 398.571 35.3588 399.084 34.342C399.596 33.3521 399.833 31.8134 399.833 29.6989C399.833 25.4877 398.836 23.4901 396.678 23.4901C394.483 23.4901 393.495 25.4337 393.495 29.6989ZM416.15 22.0234C413.653 22.0234 411.979 23.6431 411.522 26.2885L411.166 28.4661L410.927 28.4391C411.075 27.6293 411.166 26.6125 411.166 25.3617V22.3743H409.665L404.772 23.994V25.2087C404.916 25.2001 405.045 25.1914 405.161 25.1836C405.405 25.1672 405.59 25.1548 405.733 25.1548C406.665 25.1548 407.114 25.5597 407.114 26.3425V33.8561C407.114 35.2508 406.629 35.6557 404.863 35.7727V36.9874H414.595V35.7637C412.189 35.6737 411.503 35.3588 411.503 33.7301V29.5009C411.503 27.3233 412.556 26.2255 414.686 26.2255C415.318 26.2255 415.793 26.3425 416.187 26.5765H417V22.1404C416.781 22.0504 416.478 22.0234 416.15 22.0234ZM254.724 27.9733H260.758V25.8217H254.724C254.464 25.8217 254.334 25.5132 254.518 25.3327L258.785 21.1347L257.217 19.615L252.958 23.8054C252.774 23.986 252.461 23.8581 252.461 23.6023V17.674H250.274V23.6023C250.274 23.8581 249.96 23.986 249.777 23.8054L245.518 19.615L243.973 21.1347L248.24 25.3402C248.423 25.5207 248.293 25.8292 248.033 25.8292H242V27.9808H248.033C248.293 27.9808 248.423 28.2893 248.24 28.4698L243.973 32.6677L245.518 34.1874L249.8 29.9895C249.983 29.8089 250.297 29.9368 250.297 30.1926V36.1209H252.484V30.1926C252.484 29.9368 252.797 29.8089 252.981 29.9895L257.24 34.18L258.785 32.6602L254.518 28.4623C254.334 28.2817 254.464 27.9733 254.724 27.9733Z" fill="#34334A"/>
<g clip-path="url(#clip0_491_15723)">
<path fill-rule="evenodd" clip-rule="evenodd" d="M517.134 37.7012C517.134 42.0678 514.69 44.502 510.308 44.502H487.826C483.443 44.502 481 42.0678 481 37.7012V15.3028C481 10.9361 483.443 8.50195 487.826 8.50195H510.31C514.693 8.50195 517.136 10.9361 517.136 15.3028V37.7012H517.134ZM504.236 24.7492V21.316L505.483 20.0736V23.0559L506.567 24.1354L510.926 19.7899L512.003 20.8652C511.995 20.0545 511.833 17.7093 509.836 15.7556C507.682 13.6897 505.356 14.6211 504.561 15.4148L500.206 19.7561L501.317 20.8631L499.067 23.1046L496.817 20.8631L497.928 19.7561L493.571 15.4148C492.774 14.6232 490.448 13.6897 488.296 15.7556C486.299 17.7114 486.137 20.0545 486.129 20.8652L487.206 19.7899L491.565 24.1354L492.649 23.0559V20.0736L493.896 21.316V24.7514L495.655 26.5039L487.021 35.106L490.433 38.5011L499.067 29.9012L507.701 38.5011L511.113 35.106L502.479 26.5039L504.236 24.7492ZM529.634 14.5862C528.794 13.8454 527.783 13.7205 526.868 13.7205H523.156V24.2212H525.589V20.5383H527.074C527.815 20.5383 528.922 20.46 529.759 19.6091C530.154 19.1984 530.66 18.4597 530.66 17.1368C530.66 16.4129 530.534 15.3736 529.634 14.5862ZM526.457 18.5529H525.589H525.586V15.7038H526.409C526.885 15.7038 527.405 15.7504 527.768 16.0975C528.006 16.3177 528.163 16.6796 528.163 17.1199C528.163 17.5771 527.989 17.939 527.768 18.1592C527.373 18.538 526.789 18.5529 526.457 18.5529ZM536.6 17.1986H538.875V24.2195H536.6V23.3686C535.984 24.3127 535.098 24.4545 534.514 24.4545C533.502 24.4545 532.648 24.2026 531.875 23.3835C531.131 22.5961 530.849 21.6838 530.849 20.7546C530.849 19.5735 531.291 18.566 531.939 17.9204C532.555 17.3066 533.409 16.9594 534.388 16.9594C534.99 16.9594 535.952 17.1012 536.6 17.9818V17.1986ZM533.708 19.419C533.471 19.656 533.188 20.0645 533.188 20.6932C533.188 21.3218 533.456 21.7325 533.662 21.9526C533.978 22.2828 534.467 22.5029 535.004 22.5029C535.463 22.5029 535.888 22.3145 536.19 22.014C536.489 21.7304 536.742 21.2901 536.742 20.6911C536.742 20.1873 536.553 19.7153 536.222 19.3999C535.873 19.0697 535.368 18.911 534.958 18.911C534.467 18.9152 534.01 19.1205 533.708 19.419ZM542.525 21.2133V17.198H540.25V24.219H542.368L545.37 20.1423V24.219H547.645V17.198H545.527L542.525 21.2133ZM545.797 15.7037C546.239 15.4201 546.619 14.9332 546.808 14.366L545.227 13.7521C545.166 14.0675 545.006 14.3194 544.817 14.476C544.611 14.6496 544.344 14.7597 543.948 14.7597C543.553 14.7597 543.286 14.6496 543.08 14.476C542.89 14.3194 542.733 14.0675 542.669 13.7521L541.089 14.366C541.278 14.9332 541.658 15.4201 542.1 15.7037C542.699 16.0974 543.428 16.144 543.948 16.144C544.469 16.144 545.196 16.0974 545.797 15.7037ZM552.67 27.7201V24.3292H552.574C550.978 24.3292 550.093 23.6688 549.683 23.2751C549.177 22.7862 548.671 21.9522 548.671 20.678C548.671 19.2937 549.302 18.411 549.889 17.939C550.583 17.3887 551.626 17.0881 552.559 17.0881H552.67V13.7205H554.945V17.0902H555.055C555.988 17.0902 557.031 17.3887 557.726 17.9411C558.31 18.4132 558.943 19.2958 558.943 20.6801C558.943 21.9543 558.438 22.7904 557.932 23.2772C557.522 23.6709 556.636 24.3313 555.041 24.3313H554.945V27.7201H552.67ZM552.78 18.9148C552.243 18.883 551.69 19.0714 551.359 19.4037C551.091 19.6704 550.9 20.1276 550.9 20.678C550.9 21.2283 551.089 21.6855 551.359 21.9691C551.658 22.2993 552.196 22.5195 552.78 22.5046V18.9148ZM554.832 22.5046C555.417 22.5195 555.954 22.2993 556.254 21.9691C556.521 21.6855 556.713 21.2283 556.713 20.678C556.713 20.1276 556.523 19.6704 556.254 19.4037C555.922 19.0735 555.37 18.8852 554.832 18.9148V22.5046ZM563.617 24.3292V27.7201H565.892V24.3313H565.988C567.583 24.3313 568.469 23.6709 568.879 23.2772C569.385 22.7904 569.891 21.9543 569.891 20.6801C569.891 19.2958 569.258 18.4132 568.673 17.9411C567.979 17.3887 566.936 17.0902 566.003 17.0902H565.892V13.7205H563.617V17.0881H563.507C562.574 17.0881 561.531 17.3887 560.836 17.939C560.25 18.411 559.619 19.2937 559.619 20.678C559.619 21.9522 560.124 22.7862 560.63 23.2751C561.04 23.6688 561.926 24.3292 563.521 24.3292H563.617ZM562.306 19.4037C562.638 19.0714 563.19 18.883 563.728 18.9148V22.5046C563.143 22.5195 562.606 22.2993 562.306 21.9691C562.036 21.6855 561.847 21.2283 561.847 20.678C561.847 20.1276 562.039 19.6704 562.306 19.4037ZM567.203 21.9691C566.904 22.2993 566.366 22.5195 565.782 22.5046V18.9148C566.319 18.8852 566.872 19.0735 567.203 19.4037C567.473 19.6704 567.662 20.1276 567.662 20.678C567.662 21.2283 567.471 21.6855 567.203 21.9691ZM576.321 17.1986H578.597V24.2195H576.321V23.3686C575.705 24.3127 574.819 24.4545 574.235 24.4545C573.224 24.4545 572.37 24.2026 571.597 23.3835C570.853 22.5961 570.57 21.6838 570.57 20.7546C570.57 19.5735 571.012 18.566 571.66 17.9204C572.276 17.3066 573.13 16.9594 574.11 16.9594C574.711 16.9594 575.673 17.1012 576.321 17.9818V17.1986ZM573.43 19.419C573.192 19.656 572.909 20.0645 572.909 20.6932C572.909 21.3218 573.177 21.7325 573.383 21.9526C573.7 22.2828 574.188 22.5029 574.726 22.5029C575.185 22.5029 575.61 22.3145 575.911 22.014C576.211 21.7304 576.464 21.2901 576.464 20.6911C576.464 20.1873 576.275 19.7153 575.943 19.3999C575.595 19.0697 575.089 18.911 574.679 18.911C574.188 18.9152 573.73 19.1205 573.43 19.419ZM582.245 21.2133V17.198H579.969V24.219H582.087L585.089 20.1423V24.219H587.365V17.198H585.246L582.245 21.2133ZM585.516 15.7037C585.958 15.4201 586.338 14.9332 586.528 14.366L584.947 13.7521C584.885 14.0675 584.726 14.3194 584.537 14.476C584.331 14.6496 584.063 14.7597 583.668 14.7597C583.273 14.7597 583.005 14.6496 582.799 14.476C582.61 14.3194 582.453 14.0675 582.389 13.7521L580.808 14.366C580.998 14.9332 581.378 15.4201 581.82 15.7037C582.419 16.0974 583.147 16.144 583.668 16.144C584.188 16.144 584.915 16.0974 585.516 15.7037ZM588.501 17.7973C588.801 17.6089 589.292 17.3571 589.67 17.2153C590.207 17.0269 590.791 16.9634 591.329 16.9634C591.709 16.9634 593.003 16.9951 593.715 17.6873C594.11 18.0661 594.235 18.5064 594.235 18.9784C594.235 19.4187 594.157 19.8124 593.808 20.1743C593.634 20.3479 593.428 20.4897 593.207 20.568C593.727 20.6929 594.061 20.9765 594.155 21.0718C594.503 21.402 594.628 21.7809 594.628 22.2359C594.628 22.7249 594.471 23.2435 594.012 23.7007C593.411 24.2827 592.591 24.4563 591.42 24.4563C590.789 24.4563 590.124 24.378 589.493 24.1409C588.877 23.9039 588.418 23.5589 588.229 23.4001L589.194 21.9036C589.447 22.1238 589.778 22.3439 590.063 22.4709C590.362 22.5979 590.789 22.691 591.153 22.691C591.405 22.691 591.754 22.6445 591.975 22.5175C592.242 22.3608 592.291 22.1386 592.291 21.9819C592.291 21.7449 592.164 21.6031 591.96 21.5099C591.771 21.4316 591.391 21.3851 591.138 21.3851H590.284V19.842H590.932C591.138 19.842 591.563 19.8103 591.786 19.7171C592.053 19.5922 592.117 19.3869 592.117 19.2451C592.117 19.1181 592.053 18.9149 591.769 18.7879C591.658 18.7414 591.437 18.663 591.057 18.663C590.694 18.663 590.426 18.7265 590.124 18.8514C589.825 18.9763 589.587 19.1181 589.366 19.3086L588.501 17.7973ZM597.617 21.1037H602.878V20.8645C602.878 19.9988 602.718 18.896 601.881 18.0155C601.012 17.1032 599.876 16.9614 599.085 16.9614C598.295 16.9614 597.237 17.118 596.383 17.9689C595.671 18.6928 595.308 19.7321 595.308 20.7396C595.308 21.9038 595.75 22.833 596.366 23.4468C597.188 24.266 598.121 24.4543 599.179 24.4543C599.969 24.4543 600.728 24.3443 601.408 23.9358C601.82 23.6839 602.451 23.1653 602.767 22.1726L600.619 21.9525C600.428 22.3462 600.16 22.5197 600.129 22.5345C599.893 22.6764 599.544 22.7399 599.213 22.7399C598.867 22.7399 598.393 22.6785 598.044 22.2996C597.76 21.9842 597.617 21.4804 597.617 21.1037ZM600.32 18.9299C600.653 19.2453 600.764 19.6855 600.779 19.749H597.696C597.76 19.4336 597.917 19.1818 598.091 18.9934C598.312 18.7732 598.661 18.5362 599.245 18.5362C599.704 18.5362 600.067 18.6928 600.32 18.9299ZM603.906 17.1984H606.181V19.6389H608.724V17.1984H611V24.2193H608.724V21.4656H606.181V24.2214H603.906V17.1984ZM532.209 39.2054V28.7174H524.552V34.5847C524.552 35.4187 524.52 36.3458 524.079 36.786C523.875 36.9892 523.526 37.131 523.116 37.131C522.895 37.131 522.691 37.0993 522.517 37.0358V39.2054C522.819 39.2837 523.133 39.3302 523.496 39.3302C524.695 39.3302 525.421 38.9365 525.863 38.4963C526.7 37.6475 526.921 36.1531 526.921 34.3603V30.7599H529.779V39.2054H532.209ZM539.092 32.1932H541.365V39.2078H539.092V38.359C538.476 39.3031 537.592 39.4428 537.008 39.4428C535.999 39.4428 535.145 39.1909 534.372 38.3739C533.63 37.5886 533.345 36.6763 533.345 35.7471C533.345 34.5681 533.787 33.5606 534.435 32.9171C535.051 32.3033 535.903 31.9583 536.883 31.9583C537.482 31.9583 538.446 32.1001 539.092 32.9806V32.1932ZM536.203 34.4115C535.967 34.6464 535.682 35.0571 535.682 35.6857C535.682 36.3144 535.95 36.7229 536.156 36.943C536.473 37.2732 536.961 37.4933 537.497 37.4933C537.953 37.4933 538.381 37.3049 538.68 37.0065C538.98 36.7229 539.232 36.2826 539.232 35.6857C539.232 35.1819 539.043 34.7099 538.712 34.3967C538.366 34.0665 537.86 33.9098 537.45 33.9098C536.961 33.9077 536.502 34.113 536.203 34.4115ZM545.011 36.2039V32.1928H542.738V39.2074H544.854L547.854 35.135V39.2074H550.127V32.1928H548.011L545.011 36.2039ZM548.279 30.7006C548.72 30.4169 549.099 29.9301 549.288 29.3629L547.713 28.749C547.65 29.0644 547.492 29.3163 547.303 29.4729C547.097 29.6465 546.83 29.7566 546.434 29.7566C546.039 29.7566 545.772 29.6465 545.566 29.4729C545.376 29.3142 545.219 29.0644 545.156 28.749L543.577 29.3629C543.766 29.9301 544.144 30.4169 544.586 30.7006C545.185 31.0943 545.912 31.1408 546.432 31.1408C546.953 31.1408 547.679 31.0943 548.279 30.7006ZM555.145 42.7148V39.3176H555.049C553.456 39.3176 552.572 38.6572 552.16 38.2635C551.654 37.7767 551.151 36.9427 551.151 35.6685C551.151 34.2842 551.782 33.4037 552.366 32.9317C553.061 32.3814 554.102 32.0829 555.034 32.0829H555.145V28.7174H557.418V32.0829H557.528C558.459 32.0829 559.502 32.3814 560.197 32.9317C560.781 33.4037 561.412 34.2842 561.412 35.6685C561.412 36.9427 560.906 37.7767 560.403 38.2635C559.993 38.6572 559.109 39.3176 557.514 39.3176H557.418V42.7148H555.145ZM553.843 34.4091C554.168 34.0836 554.709 33.8967 555.238 33.924V37.4833C554.663 37.4938 554.137 37.2759 553.844 36.9526L553.844 36.9524C553.577 36.6721 553.389 36.219 553.389 35.6721M557.324 37.4833V33.924C557.853 33.8989 558.393 34.0857 558.718 34.4091L558.718 34.4092C558.984 34.6723 559.172 35.1251 559.172 35.6721C559.172 36.2189 558.982 36.6721 558.718 36.9524L558.717 36.9526C558.424 37.2759 557.898 37.4938 557.324 37.4833Z" fill="#34334A"/>
</g>
<g clip-path="url(#clip1_491_15723)">
<path d="M692.728 20.7398C692.728 21.2832 692.297 21.714 691.753 21.714C691.208 21.714 690.778 21.2832 690.778 20.7398C690.778 20.1965 691.208 19.7656 691.753 19.7656C692.277 19.7656 692.728 20.2155 692.728 20.7398Z" fill="#34334A"/>
<path d="M700.582 20.7398C700.582 20.1965 700.151 19.7656 699.607 19.7656C699.062 19.7656 698.632 20.1965 698.632 20.7398C698.632 21.2832 699.062 21.714 699.607 21.714C700.151 21.714 700.582 21.2832 700.582 20.7398Z" fill="#34334A"/>
<path d="M707.894 41.8485C710.256 41.8485 712.636 40.9677 714.453 39.1874L714.472 39.1683C714.491 39.1494 714.51 39.1304 714.528 39.1128C716.701 36.8269 717.339 33.4718 716.158 30.5668C715.52 28.9923 714.303 27.7361 712.728 27.0804C711.153 26.4056 709.43 26.4056 707.837 27.0424C705.215 28.0925 703.939 31.0912 705.007 33.7145C705.232 34.2768 705.87 34.5397 706.432 34.3146C706.994 34.0897 707.256 33.4529 707.032 32.9095C706.432 31.4109 707.163 29.686 708.662 29.0669C710.818 28.205 713.272 29.2362 714.153 31.3906C714.996 33.4895 714.547 35.9258 712.972 37.5938L712.934 37.6317C710.085 40.4244 705.493 40.3675 702.701 37.5194C700.228 34.9895 699.965 30.9408 702.064 28.1291C702.121 28.0545 702.382 27.7727 702.608 27.5112C703.808 26.1616 705.025 24.7755 705.531 23.8934C706.749 21.8135 707.405 19.4897 707.405 17.3528C707.405 15.9098 707.124 14.5222 706.543 13.2107C706.73 12.4044 707.311 10.1374 707.855 8.09411C707.948 7.71875 707.855 7.3448 707.592 7.06293C707.33 6.78246 706.937 6.66863 706.581 6.74452C704.556 7.17542 702.29 7.6442 701.484 7.7757C699.741 6.83935 697.755 6.35156 695.731 6.35156C689.303 6.35156 684.075 11.2811 684.075 17.3528C684.075 19.4897 684.749 21.8324 685.949 23.8934C686.456 24.7742 687.655 26.1616 688.854 27.4923C689.078 27.7551 689.341 28.0545 689.398 28.1102C691.535 30.9774 691.272 34.9325 688.76 37.5003C687.412 38.8879 685.593 39.6561 683.662 39.6751C681.75 39.6941 679.933 38.9813 678.547 37.6317V37.6128L678.528 37.5748C676.972 35.9069 676.522 33.4705 677.385 31.3527C677.798 30.3039 678.603 29.4977 679.653 29.0478C680.683 28.6169 681.826 28.5979 682.875 29.0099C684.374 29.6102 685.106 31.3337 684.506 32.8527C684.281 33.415 684.544 34.0328 685.106 34.2768C685.667 34.5018 686.305 34.2389 686.53 33.6765C687.579 31.0532 686.324 28.0722 683.7 27.0044C682.125 26.3676 680.383 26.3865 678.809 27.0424C677.235 27.7172 676.017 28.9543 675.379 30.5288C674.218 33.415 674.836 36.751 676.935 39.0193L676.954 39.0572C676.973 39.0762 676.992 39.0952 677.01 39.1317C678.809 40.8932 681.188 41.8499 683.7 41.812C686.212 41.7929 688.572 40.7808 690.334 38.9813C691.908 37.3689 692.863 35.2334 692.994 32.9841C693.126 30.7537 692.47 28.5424 691.158 26.7619C691.065 26.6305 690.896 26.4435 690.503 25.9937C689.734 25.1319 688.292 23.5005 687.86 22.7322C686.848 20.9896 686.285 19.0398 686.285 17.2783C686.285 12.4057 690.539 8.45047 695.767 8.45047C697.529 8.45047 699.253 8.90033 700.752 9.76212C700.921 9.85559 701.127 9.91246 701.332 9.91246C701.801 9.89357 703.713 9.51821 705.343 9.16314C704.913 10.8122 704.406 12.7431 704.368 13.1361C704.349 13.342 704.387 13.529 704.462 13.7174C704.986 14.842 705.267 16.0222 705.267 17.2593C705.267 19.0208 704.705 20.9707 703.693 22.7132C703.243 23.4815 701.8 25.1129 701.032 25.9747C700.638 26.4056 700.47 26.6116 700.377 26.724C699.045 28.5045 698.39 30.7159 698.521 32.9461C698.653 35.1955 699.609 37.3322 701.182 38.9433C703.003 40.8932 705.439 41.8485 707.894 41.8485Z" fill="#34334A"/>
<path d="M695.842 25.8015C697.284 25.8015 697.885 25.2201 697.885 24.9017C697.885 24.5643 697.623 24.5088 697.304 24.5088H693.95C693.613 24.5088 693.351 24.5643 693.351 24.9017C693.351 25.2391 693.988 25.8015 695.394 25.8015H695.842Z" fill="#34334A"/>
<path d="M705.674 46.6479C706.274 46.6479 706.761 46.1601 706.761 45.5612C706.761 44.9609 706.274 44.4745 705.674 44.4745C703.838 44.4745 701.589 43.6127 699.827 42.2062C698.704 41.3254 696.83 39.4691 696.83 36.9772C696.83 36.3771 696.342 35.8906 695.742 35.8906H695.704C695.104 35.8906 694.617 36.3784 694.617 36.9772C694.617 39.4704 692.743 41.3254 691.619 42.2062C689.839 43.5937 687.608 44.4745 685.772 44.4745C685.173 44.4745 684.685 44.9623 684.685 45.5612C684.685 46.1615 685.173 46.6479 685.772 46.6479C688.115 46.6479 690.795 45.6357 692.969 43.9298C694.15 42.992 695.087 41.9433 695.723 40.8187C696.361 41.9433 697.298 42.992 698.477 43.9298C700.633 45.6357 703.332 46.6479 705.674 46.6479Z" fill="#34334A"/>
<path d="M736.101 23.1855V34.337H733.837V26.5566L730.942 34.337H728.969L726.073 26.5888V34.337H723.793V23.1855H726.558L729.987 31.5732L733.351 23.1855H736.101Z" fill="#34334A"/>
<path d="M743.588 25.9021C744.127 26.2539 744.51 26.727 744.736 27.3241V25.4875H747V34.338H744.736V32.4852C744.51 33.0824 744.127 33.5584 743.588 33.9146C743.048 34.2709 742.401 34.4504 741.647 34.4504C740.892 34.4504 740.213 34.2694 739.609 33.9073C739.004 33.5452 738.533 33.0211 738.194 32.3334C737.855 31.6457 737.684 30.8397 737.684 29.9127C737.684 28.9856 737.855 28.1797 738.194 27.492C738.535 26.8044 739.006 26.2802 739.609 25.9181C740.212 25.5561 740.892 25.375 741.647 25.375C742.401 25.375 743.048 25.5502 743.588 25.9021ZM740.643 28.0264C740.212 28.4848 739.996 29.1126 739.996 29.9113C739.996 30.7099 740.212 31.3363 740.643 31.7888C741.075 32.2414 741.645 32.4677 742.358 32.4677C743.048 32.4677 743.617 32.2356 744.063 31.7728C744.511 31.3099 744.734 30.6894 744.734 29.9113C744.734 29.1228 744.511 28.4979 744.063 28.0337C743.616 27.5709 743.047 27.3387 742.358 27.3387C741.647 27.3402 741.075 27.5694 740.643 28.0264Z" fill="#34334A"/>
<path d="M756.581 26.235C757.196 26.9066 757.503 27.8483 757.503 29.063V34.208H755.24V29.32C755.24 28.6177 755.056 28.0717 754.689 27.6818C754.323 27.2935 753.822 27.0993 753.185 27.0993C752.538 27.0993 752.02 27.3066 751.633 27.7227C751.246 28.1389 751.051 28.7345 751.051 29.5127V34.2095H748.771V25.359H751.051V27.1328C751.287 26.5372 751.679 26.0699 752.223 25.7341C752.766 25.3983 753.395 25.2305 754.107 25.2305C755.142 25.2291 755.966 25.5649 756.581 26.235Z" fill="#34334A"/>
<path d="M760.326 25.375L762.767 31.3815L765.032 25.375H767.538L762.055 38.4436H759.533L761.554 33.9701L757.786 25.375H760.326Z" fill="#34334A"/>
<path d="M777.04 23.9827C777.978 24.7069 778.598 25.6923 778.899 26.9377H776.506C776.258 26.3303 775.873 25.8515 775.35 25.4997C774.828 25.1477 774.2 24.9726 773.466 24.9726C772.862 24.9726 772.318 25.1215 771.833 25.4193C771.348 25.7172 770.97 26.1435 770.701 26.6969C770.432 27.2502 770.296 27.9013 770.296 28.6459C770.296 29.3803 770.43 30.0256 770.701 30.5789C770.97 31.1324 771.348 31.5587 771.833 31.8565C772.318 32.1544 772.863 32.3033 773.466 32.3033C774.2 32.3033 774.828 32.1281 775.35 31.7762C775.874 31.4243 776.258 30.9455 776.506 30.3381H778.899C778.598 31.5849 777.977 32.5689 777.04 33.2932C776.102 34.0174 774.922 34.3794 773.499 34.3794C772.409 34.3794 771.448 34.137 770.612 33.6523C769.777 33.1676 769.13 32.4887 768.672 31.6156C768.214 30.7425 767.985 29.7526 767.985 28.6445C767.985 27.5262 768.214 26.5304 768.672 25.6573C769.13 24.7842 769.775 24.1053 770.605 23.6206C771.436 23.1359 772.401 22.8936 773.5 22.8936C774.922 22.8949 776.102 23.2584 777.04 23.9827Z" fill="#34334A"/>
<path d="M788.21 26.3036C788.825 26.9752 789.132 27.9169 789.132 29.1317V34.2767H786.868V29.3886C786.868 28.6864 786.685 28.1403 786.318 27.7506C785.952 27.3622 785.45 27.168 784.814 27.168C784.166 27.168 783.649 27.3753 783.262 27.7913C782.875 28.2075 782.679 28.8032 782.679 29.5813V34.2782H780.399V22.4551H782.679V27.2C782.916 26.6044 783.307 26.1372 783.851 25.8014C784.395 25.4656 785.024 25.2977 785.735 25.2977C786.77 25.2977 787.595 25.6335 788.21 26.3036Z" fill="#34334A"/>
<path d="M796.351 25.9021C796.891 26.2539 797.273 26.727 797.499 27.3241V25.4875H799.764V34.338H797.499V32.4852C797.273 33.0824 796.891 33.5584 796.351 33.9146C795.812 34.2709 795.165 34.4504 794.411 34.4504C793.656 34.4504 792.978 34.2694 792.373 33.9073C791.768 33.5452 791.297 33.0211 790.958 32.3334C790.618 31.6457 790.449 30.8397 790.449 29.9127C790.449 28.9856 790.618 28.1797 790.958 27.492C791.298 26.8044 791.77 26.2802 792.373 25.9181C792.976 25.5561 793.656 25.375 794.411 25.375C795.165 25.375 795.812 25.5502 796.351 25.9021ZM793.408 28.0264C792.976 28.4848 792.76 29.1126 792.76 29.9113C792.76 30.7099 792.976 31.3363 793.408 31.7888C793.839 32.2414 794.41 32.4677 795.121 32.4677C795.812 32.4677 796.381 32.2356 796.827 31.7728C797.275 31.3099 797.498 30.6894 797.498 29.9113C797.498 29.1228 797.275 28.4979 796.827 28.0337C796.379 27.5709 795.81 27.3387 795.121 27.3387C794.411 27.3402 793.839 27.5694 793.408 28.0264Z" fill="#34334A"/>
<path d="M806.341 34.226H805.145C804.142 34.226 803.373 33.9866 802.84 33.5077C802.306 33.0289 802.038 32.2303 802.038 31.1119V27.275H800.793V25.374H802.038V23.1855H804.319V25.374H806.326V27.275H804.319V31.1411C804.319 31.5674 804.405 31.8652 804.579 32.0361C804.751 32.2068 805.043 32.2915 805.451 32.2915H806.341V34.226Z" fill="#34334A"/>
</g>
<path fill-rule="evenodd" clip-rule="evenodd" d="M936.803 21.8872L935.799 31.2082C935.705 32.2092 935.705 33.3039 936.05 34.2735C936.332 35.0868 936.771 35.7749 937.43 36.3066C938.121 36.8697 938.968 37.245 939.815 37.4952C940.851 37.7767 941.949 37.8706 943.016 37.8706C944.177 37.8706 945.369 37.7455 946.498 37.4952C947.471 37.2763 948.444 36.9322 949.322 36.4005C950.232 35.9 950.766 35.1181 950.86 34.0859L951.958 24.0142C951.989 23.6075 952.021 23.1384 951.895 22.763C951.801 22.4815 951.676 22.2313 951.456 22.0436C951.205 21.8559 950.923 21.7308 950.609 21.6996C950.201 21.637 949.762 21.6057 949.354 21.6057C948.852 21.6057 948.381 21.637 947.91 21.6996C947.628 21.7308 947.314 21.7934 947.032 21.8559L945.777 33.429L945.651 33.4916C945.4 33.6167 945.118 33.7105 944.835 33.7731C944.428 33.8982 943.957 33.8982 943.518 33.8982C942.796 33.8982 942.043 33.7731 941.509 33.2413C940.945 32.7096 940.913 31.8338 940.976 31.1144L941.76 23.9829C941.792 23.5763 941.823 23.1071 941.698 22.7317C941.604 22.4502 941.478 22.2 941.258 22.0123C941.007 21.8247 940.725 21.6996 940.411 21.6683C940.003 21.6057 939.564 21.5744 939.156 21.5744C938.654 21.5744 938.183 21.6057 937.713 21.6683C937.399 21.7934 937.085 21.8247 936.803 21.8872ZM932.63 37.6516L933.728 27.4235C933.916 25.7658 933.571 24.2018 932.285 23.0758C930.841 21.7934 928.708 21.4806 926.825 21.4806C925.538 21.4806 924.252 21.637 923.028 21.9811C922.024 22.2626 920.989 22.6692 920.11 23.2322C919.702 23.5137 919.326 23.8265 919.012 24.2018C918.698 24.5772 918.573 25.0776 918.51 25.5468L917.443 35.4934C917.412 35.9 917.38 36.3692 917.506 36.7445C917.6 37.0261 917.726 37.2763 917.945 37.464C918.196 37.6516 918.479 37.7767 918.792 37.808C919.2 37.8706 919.64 37.9019 920.047 37.9019C920.549 37.9019 921.02 37.8706 921.491 37.808C921.773 37.7767 922.087 37.7142 922.369 37.6516L923.624 26.2037L923.719 26.1411C924.095 25.8909 924.503 25.7345 924.942 25.6094C925.382 25.4843 925.852 25.4217 926.323 25.4217C926.919 25.4217 927.547 25.5468 927.986 25.9534C928.457 26.3913 928.551 27.0482 928.488 27.6425L927.641 35.4621C927.609 35.8687 927.578 36.3379 927.703 36.7133C927.798 36.9948 927.923 37.245 928.143 37.4327C928.394 37.6203 928.676 37.7455 928.99 37.7767C929.398 37.8393 929.837 37.8706 930.245 37.8706C930.747 37.8706 931.218 37.8393 931.688 37.7767C932.034 37.7455 932.347 37.7142 932.63 37.6516ZM875.805 37.6516L877.061 26.0473L877.155 25.9847C877.406 25.8596 877.688 25.7345 877.939 25.6407C878.284 25.4843 878.692 25.453 879.069 25.453C879.634 25.453 880.198 25.5781 880.638 25.9534C881.14 26.3601 881.234 26.9856 881.171 27.5799L880.355 35.4934C880.324 35.9 880.292 36.3692 880.418 36.7445C880.512 37.0261 880.638 37.2763 880.857 37.464C881.108 37.6516 881.391 37.7767 881.704 37.808C882.112 37.8706 882.552 37.9019 882.96 37.9019C883.43 37.9019 883.901 37.8706 884.371 37.808C884.685 37.7767 884.999 37.7142 885.281 37.6516L886.474 26.579C886.474 26.5165 886.474 26.4539 886.474 26.3913L886.442 26.2662L886.537 26.1724C886.788 25.9534 887.133 25.797 887.446 25.7032C887.792 25.5781 888.168 25.4843 888.545 25.4843C889.109 25.4843 889.737 25.6094 890.176 25.9847C890.647 26.3913 890.741 27.0169 890.647 27.6112L889.863 35.4934C889.831 35.9 889.8 36.3692 889.925 36.7445C890.019 37.0261 890.145 37.2763 890.365 37.464C890.616 37.6516 890.898 37.7767 891.212 37.808C891.62 37.8706 892.059 37.9019 892.467 37.9019C892.969 37.9019 893.44 37.8706 893.91 37.808C894.193 37.7767 894.506 37.7142 894.789 37.6516L895.918 27.361C896.012 26.4539 896.012 25.453 895.667 24.6085C895.416 23.9203 895.008 23.2948 894.444 22.8256C893.879 22.3564 893.188 22.0123 892.467 21.8247C891.682 21.6057 890.898 21.5119 890.082 21.5119C889.078 21.5119 888.043 21.6057 887.101 21.9185C886.285 22.2 885.501 22.5441 884.779 22.982L884.654 23.0758L884.528 22.982C883.932 22.4502 883.211 22.1062 882.457 21.8872C881.61 21.637 880.763 21.5119 879.885 21.5119C878.692 21.5119 877.531 21.6683 876.402 22.0123C875.398 22.2626 874.394 22.6692 873.515 23.2322C873.107 23.4824 872.731 23.7952 872.417 24.1706C872.134 24.5459 871.977 25.0151 871.946 25.4843L870.848 35.4934C870.817 35.9 870.785 36.3692 870.911 36.7445C871.005 37.0261 871.13 37.2763 871.35 37.464C871.601 37.6516 871.883 37.7767 872.197 37.808C872.605 37.8706 873.044 37.9019 873.452 37.9019C873.954 37.9019 874.425 37.8706 874.896 37.808C875.209 37.7455 875.523 37.7142 875.805 37.6516ZM908.689 36.2754C908.72 35.3057 909.536 34.4299 910.509 34.3361C911.481 34.2423 912.266 34.9304 912.234 35.9C912.203 36.8697 911.387 37.7455 910.415 37.8393C909.442 37.9644 908.657 37.245 908.689 36.2754ZM901.786 36.7133C901.817 35.9939 902.413 35.337 903.135 35.2745C903.857 35.2119 904.453 35.7124 904.422 36.4318C904.39 37.1512 903.794 37.808 903.072 37.8706C902.351 37.9644 901.786 37.4327 901.786 36.7133ZM914.807 30.8955C914.556 31.0518 914.305 31.2395 914.023 31.3959C913.333 31.8025 912.642 32.1466 911.889 32.3968C911.419 32.5532 910.948 32.7096 910.477 32.8347C908.94 33.2101 907.245 33.2413 905.896 32.6471C903.449 31.6149 902.727 28.2368 903.951 26.0786C904.422 25.2653 905.143 24.6397 906.241 24.1706C907.685 23.545 909.724 23.6701 910.791 24.9212C911.011 25.2028 911.199 25.5155 911.293 25.8596L911.325 25.9847L906.681 27.0169C906.43 27.0795 906.116 27.1733 905.896 27.3297C905.739 27.4548 905.614 27.5799 905.551 27.7676C905.488 27.9553 905.488 28.1742 905.52 28.3619C905.583 28.6434 905.645 28.9249 905.739 29.1751C905.834 29.4879 905.99 29.7694 906.116 30.0509C906.21 30.2386 906.304 30.4263 906.43 30.5827L912.078 29.2064L913.678 28.9249C914.368 28.7685 914.964 28.4244 915.372 27.8302C915.843 27.1733 915.937 26.3288 915.843 25.5155C915.717 24.5459 915.278 23.6388 914.682 22.8881C912.988 20.7299 910.226 20.0418 907.591 20.292C906.43 20.3859 905.269 20.6674 904.171 21.074C903.072 21.4806 902.068 22.0436 901.19 22.7943C900.28 23.545 899.589 24.4833 899.056 25.5155C898.052 27.4861 897.895 29.7381 898.711 31.8338C899.307 33.3665 900.343 34.6176 901.629 35.5247C901.66 35.4621 901.723 35.3996 901.754 35.3683C902.1 34.9929 902.57 34.7427 903.104 34.6802C903.198 34.6802 903.261 34.6802 903.355 34.6802C903.794 34.6802 904.171 34.8678 904.484 35.1181C904.767 35.3996 904.955 35.7436 905.018 36.1815C905.018 36.2441 905.018 36.3379 905.018 36.4005C905.018 36.5569 904.986 36.7133 904.955 36.8697C905.175 36.9009 905.363 36.9322 905.583 36.9635C906.367 37.0261 907.245 37.0261 908.155 36.9635C908.124 36.8384 908.093 36.7133 908.093 36.5882C908.093 36.4943 908.093 36.4005 908.093 36.3066C908.124 35.6498 908.375 35.0555 908.814 34.5863C909.254 34.1171 909.85 33.8044 910.509 33.7418C910.603 33.7418 910.728 33.7418 910.823 33.7418C911.356 33.7418 911.858 33.9608 912.203 34.2735C912.58 34.6176 912.799 35.0555 912.862 35.5872C912.862 35.6811 912.862 35.7749 912.862 35.8687C912.862 35.9 912.862 35.9313 912.862 35.9626C912.925 35.9313 912.988 35.9 913.082 35.8687C914.117 35.4308 915.121 34.6489 915.435 33.5229C915.686 32.6158 915.372 31.6774 914.807 30.8955ZM952.774 36.8384C952.774 36.5256 952.868 36.2754 953.056 36.0564C953.245 35.8375 953.496 35.7436 953.841 35.7436C954.186 35.7436 954.437 35.8375 954.625 36.0564C954.813 36.2754 954.908 36.5256 954.908 36.8384C954.908 37.1512 954.813 37.4014 954.625 37.6203C954.437 37.8393 954.186 37.9331 953.841 37.9331C953.496 37.9331 953.245 37.8393 953.056 37.6203C952.868 37.4014 952.774 37.1199 952.774 36.8384ZM958.077 36.5256C958.202 36.5256 958.328 36.5256 958.485 36.4943C958.641 36.463 958.736 36.4318 958.83 36.4005V35.5247L958.045 35.5872C957.826 35.5872 957.669 35.6498 957.543 35.7124C957.418 35.7749 957.355 35.9 957.355 36.0564C957.355 36.2128 957.418 36.3379 957.512 36.4005C957.606 36.4943 957.826 36.5256 958.077 36.5256ZM958.014 32.1779C958.422 32.1779 958.767 32.2092 959.112 32.303C959.426 32.3968 959.708 32.5219 959.959 32.6783C960.179 32.8347 960.367 33.0537 960.493 33.3039C960.618 33.5541 960.681 33.8669 960.681 34.211V36.682C960.681 36.8697 960.618 37.0261 960.524 37.1512C960.43 37.2763 960.304 37.3701 960.148 37.464C959.677 37.7455 958.987 37.9019 958.108 37.9019C957.731 37.9019 957.355 37.8706 957.041 37.7767C956.727 37.7142 956.445 37.5891 956.225 37.4327C956.006 37.2763 955.817 37.0886 955.692 36.8697C955.566 36.6507 955.504 36.3692 955.504 36.0877C955.504 35.5872 955.661 35.1806 955.974 34.9304C956.288 34.6489 956.759 34.4925 957.386 34.4299L958.83 34.2735V34.211C958.83 33.992 958.736 33.8356 958.547 33.7418C958.359 33.648 958.077 33.6167 957.731 33.6167C957.449 33.6167 957.167 33.648 956.916 33.7105C956.665 33.7731 956.414 33.8356 956.194 33.9295C956.1 33.8669 956.006 33.7731 955.943 33.6167C955.88 33.4916 955.849 33.3352 955.849 33.1788C955.849 32.9911 955.88 32.8347 955.974 32.7096C956.068 32.5845 956.194 32.4907 956.414 32.4281C956.633 32.3343 956.884 32.303 957.167 32.2404C957.48 32.2092 957.763 32.1779 958.014 32.1779ZM964.383 32.1779C964.697 32.1779 964.98 32.2092 965.262 32.303C965.544 32.3968 965.795 32.5219 966.015 32.6783C966.235 32.5219 966.486 32.3968 966.768 32.303C967.051 32.2092 967.364 32.1466 967.772 32.1466C968.055 32.1466 968.337 32.1779 968.588 32.2717C968.87 32.3343 969.09 32.4594 969.31 32.6158C969.529 32.7722 969.686 32.9911 969.812 33.2413C969.937 33.4916 970 33.8356 970 34.211V37.6829C969.937 37.7142 969.812 37.7142 969.655 37.7455C969.498 37.7767 969.341 37.7767 969.153 37.7767C968.996 37.7767 968.839 37.7767 968.714 37.7455C968.588 37.7142 968.463 37.6829 968.4 37.6203C968.306 37.5578 968.243 37.464 968.18 37.3388C968.117 37.2137 968.117 37.0886 968.117 36.9009V34.2735C968.117 34.0546 968.055 33.8982 967.929 33.8044C967.804 33.7105 967.647 33.648 967.427 33.648C967.333 33.648 967.207 33.6792 967.082 33.7105C966.956 33.7731 966.862 33.8044 966.831 33.8669C966.831 33.8982 966.831 33.9295 966.831 33.9608C966.831 33.992 966.831 34.0233 966.831 34.0233V37.6829C966.737 37.7142 966.643 37.7142 966.486 37.7455C966.329 37.7767 966.172 37.7767 966.015 37.7767C965.858 37.7767 965.701 37.7767 965.576 37.7455C965.45 37.7142 965.325 37.6829 965.262 37.6203C965.168 37.5578 965.105 37.464 965.042 37.3388C964.98 37.2137 964.98 37.0886 964.98 36.9009V34.2735C964.98 34.0546 964.917 33.8982 964.791 33.8044C964.666 33.7105 964.478 33.648 964.289 33.648C964.164 33.648 964.038 33.6792 963.944 33.7105C963.85 33.7418 963.756 33.8044 963.693 33.8356V37.7142C963.63 37.7455 963.505 37.7455 963.348 37.7767C963.191 37.808 963.034 37.808 962.846 37.808C962.689 37.808 962.532 37.808 962.407 37.7767C962.281 37.7455 962.156 37.7142 962.093 37.6516C961.999 37.5891 961.936 37.4952 961.873 37.3701C961.811 37.245 961.811 37.1199 961.811 36.9322V33.5854C961.811 33.3977 961.842 33.2413 961.936 33.1162C962.03 32.9911 962.124 32.8973 962.281 32.7722C962.532 32.5845 962.846 32.4594 963.223 32.3343C963.599 32.2404 963.976 32.1779 964.383 32.1779Z" fill="#34334A"/>
<g clip-path="url(#clip2_491_15723)">
<path d="M1038.31 19.2357C1045.86 16.4454 1054.38 14.6297 1063.09 15.8962L1063.97 14.2836C1065.76 14.0011 1067.6 13.7599 1069.38 13.5789L1066.97 17.2422C1069.32 18.258 1071.3 20.7022 1071.49 23.2925C1071.49 26.7843 1069.92 29.6857 1068.09 32.3966L1070.71 32.0792C1072.49 29.2444 1077.46 25.7971 1079.49 28.4001L1080.2 27.4287L1083.51 26.9367C1080.61 32.2315 1079.07 33.6632 1079.45 34.1647C1079.89 34.752 1085.16 30.1269 1087.16 26.3462L1090.3 26.0034L1088.53 29.0857C1091.7 26.5272 1092.86 24.8702 1094.6 25.5939C1097.05 26.6002 1091.67 32.241 1092.28 32.6188C1092.76 32.9362 1097.1 29.8 1099.15 26.6351L1096.2 27.0827L1097.24 25.1781L1100.16 24.8035C1103.31 19.0579 1111.64 8.03649 1114.18 9.66177C1116.54 11.1664 1110.88 18.4579 1103.44 23.7083L1102.97 24.5432L1109.4 23.8258C1109.43 23.8452 1109.46 23.8725 1109.48 23.9053C1109.5 23.9381 1109.52 23.9755 1109.52 24.0144C1109.53 24.0532 1109.52 24.0924 1109.51 24.1286C1109.49 24.1648 1109.47 24.1971 1109.44 24.2226C1107.35 25.9653 1103.27 30.2158 1105.42 31.5459C1107.31 32.2093 1110.26 27.8922 1110.52 27.0287C1108.86 26.5081 1110.2 21.8926 1112.58 22.4894C1114.18 23.0322 1112.97 25.3146 1112.58 26.197C1115.66 25.8129 1118.42 22.7306 1118.42 22.7306C1118.41 20.2832 1119.96 17.6516 1121.81 18.2865C1123 18.8865 1122.01 20.6578 1120.09 22.683C1119.85 22.9306 1119.95 23.8893 1119.92 25.0035C1122.11 24.2522 1124.25 23.367 1126.32 22.3529C1126.35 20.0039 1127.54 17.1438 1129.54 17.7405C1131.01 18.1754 1129.54 21.0768 1127.71 22.5402C1127.67 25.7145 1128.19 27.7842 1127.38 29.4381C1126.47 31.3427 1123.21 32.9299 1121.31 31.8316C1119.31 30.6888 1121.09 28.1493 1122.31 27.1938C1123.38 26.3081 1126.17 25.0352 1126.17 25.0352C1126.24 24.5096 1126.27 23.9784 1126.25 23.448C1125.16 24.0829 1119.98 25.9875 1119.98 25.9875C1119.75 27.8636 1119.8 28.635 1118.9 30.3333C1117.77 32.441 1114.09 33.3076 1112.85 32.1045C1111.99 31.2792 1112.24 29.2921 1114.02 27.8731C1115.37 26.797 1118.2 25.6288 1118.2 25.6288C1118.31 25.1329 1118.37 24.6241 1118.36 24.1147C1116.54 25.6638 1114.44 27.2478 1111.77 27.3113C1110.14 30.5047 1105.84 34.9107 1102.77 32.9235C1099.81 31.0189 1104.58 26.0002 1105.07 25.6225C1104.06 25.7329 1103.06 25.8961 1102.08 26.1113L1096.85 35.6916L1096.92 35.6662C1096.92 35.6662 1114.82 33.6473 1131.05 33.5997L1129.11 35.3995C1130.04 36.0588 1131 36.6691 1132 37.228C1119.84 36.8346 1107.67 37.1165 1095.55 38.0724L1092.71 43.3291L1089.18 43.5894L1092.24 38.3422C1092.24 38.3422 1083.36 38.6247 1063.9 41.215C1064.13 40.8214 1064.18 40.7325 1064.49 40.2087C1081.84 36.9137 1093.56 36.0566 1093.56 36.0566C1093.56 36.0566 1096.25 31.4348 1096.15 31.5268C1094.44 32.9362 1090.69 35.936 1089.1 34.4694C1087.94 33.0537 1091.94 28.5588 1091.49 28.1905C1091.11 27.889 1086.38 32.7045 1084.66 35.3329C1083.69 35.3837 1081.88 35.6154 1081.88 35.6154L1083.26 32.9711C1081.7 34.1488 1080.08 35.4567 1078.33 36.1455C1077.84 36.3392 1076.72 36.3963 1076.26 35.1107C1076.26 35.1107 1072.76 38.2469 1070.41 37.0343C1069.15 36.3995 1069.72 34.0377 1069.95 33.5013L1067.17 33.8187C1055.06 47.6621 1039.29 49.2366 1037.41 46.1987C1035.4 42.945 1042.55 38.6056 1052.36 35.5519C1052.36 35.5519 1061.07 20.0388 1060.9 19.9308C1048.86 18.1151 1034 27.2668 1034 27.2668L1038.31 19.2357ZM1042.89 44.1957C1044.31 45.9638 1056.14 44.1037 1064.15 34.3076C1058.63 35.1742 1055.33 36.3328 1054.14 36.7582C1051.53 40.9579 1050.45 42.472 1049.45 42.3355C1048.24 42.1705 1050.15 39.923 1051.19 37.7422C1046.82 39.1231 1041.58 42.545 1042.89 44.1957ZM1055.65 34.5107C1058.81 33.7334 1062.01 33.1461 1065.24 32.7521C1066.65 30.5142 1071.16 23.0608 1064.69 20.753L1055.65 34.5107ZM1074.36 31.3967C1073.44 32.6283 1072.43 34.6663 1073.19 35.2599C1073.95 35.8535 1076.08 34.0377 1076.78 33.133C1078 31.5744 1078.97 29.4317 1078.23 29.0318C1077.06 28.3969 1075.02 30.5142 1074.36 31.3967ZM1104.82 21.1085C1107.19 19.6832 1113.21 13.7694 1111.71 12.379C1110.16 11.7251 1106.04 18.3024 1104.82 21.1085ZM1115.56 28.1429C1114.58 28.8635 1114.07 29.7301 1114.56 30.1206C1115.06 30.511 1116.26 29.7714 1116.81 29.0318C1117.31 28.3847 1117.66 27.6479 1117.87 26.8637C1117.87 26.8637 1117.08 27.0319 1115.57 28.1334L1115.56 28.1429ZM1123.39 27.7398C1123.04 28.0572 1121.78 29.1778 1122.34 29.746C1122.81 30.238 1124.21 29.4032 1124.77 28.7492C1125.28 28.0666 1125.66 27.2915 1125.88 26.4669C1124.97 26.7297 1124.13 27.1607 1123.39 27.7366" fill="#34334A"/>
</g>
<path d="M1252.63 24.1341H1244.91C1244.95 24.1681 1245.81 26.0192 1249.71 27.8022L1252.18 28.9341C1253.72 29.6546 1255.13 30.1681 1255.13 31.7454C1255.13 33.8022 1253.18 34.317 1251.87 34.317C1249.71 34.317 1247.83 33.1852 1246.22 30.9909L1242.96 33.3909V33.4249C1244.81 36.6136 1247.93 38.4987 1251.84 38.4987C1256.88 38.4987 1260 35.5158 1260 31.6066C1260 28.7953 1258.53 27.0464 1255.41 25.5032L1252.63 24.1341ZM1255.13 21.8716C1257.22 21.8716 1258.83 20.2603 1258.83 18.2035C1258.83 16.1126 1257.22 14.5 1255.13 14.5C1253.07 14.5 1251.46 16.1114 1251.46 18.2035C1251.46 20.2603 1253.07 21.8716 1255.13 21.8716ZM1205.08 20.3423C1199.96 20.3423 1196 24.3032 1196 29.4211C1196 34.5391 1200 38.5 1205.5 38.5C1208.16 38.5 1210.47 37.5536 1212.44 35.9057L1210.47 32.6804C1209.07 33.7669 1207.53 34.4331 1205.64 34.4331C1203.11 34.4331 1201.33 33.2066 1200.77 30.9984H1212.93C1213.07 30.4028 1213.24 29.3858 1213.24 28.4041C1213.24 23.917 1209.95 20.3423 1205.08 20.3423ZM1200.77 27.6685C1201.29 25.4956 1202.9 24.1631 1204.9 24.1631C1206.9 24.1631 1208.62 25.4603 1208.65 27.6685H1200.77ZM1228.79 14.5C1221.98 14.5 1216.51 19.6924 1216.51 26.5C1216.51 33.3076 1221.98 38.5 1228.79 38.5C1235.6 38.5 1241.14 33.3076 1241.14 26.5C1241.14 19.6924 1235.59 14.5 1228.79 14.5ZM1228.82 34.1139C1224.51 34.1139 1221.39 30.9909 1221.39 26.5C1221.39 22.0432 1224.51 18.8861 1228.82 18.8861C1233.07 18.8861 1236.26 22.0445 1236.26 26.5C1236.26 30.9909 1233.07 34.1139 1228.82 34.1139Z" fill="#34334A"/>
<path d="M1336.31 34.6727C1336.94 35.5329 1337.78 36.2856 1338.63 36.9308C1340.73 38.5437 1343.36 39.5114 1346.2 39.5114C1349.04 39.5114 1351.68 38.5437 1353.78 36.9308C1354.62 36.2856 1355.36 35.5329 1356.1 34.6727C1355.46 33.8125 1354.62 33.0598 1353.78 32.4146C1351.68 30.8017 1349.04 29.834 1346.2 29.834C1343.36 29.834 1340.73 30.8017 1338.63 32.4146C1337.68 33.0598 1336.94 33.8125 1336.31 34.6727Z" fill="#34334A"/>
<path d="M1346.2 26.5007C1348.82 26.5007 1350.94 24.3343 1350.94 21.662C1350.94 18.9896 1348.82 16.8232 1346.2 16.8232C1343.59 16.8232 1341.47 18.9896 1341.47 21.662C1341.47 24.3343 1343.59 26.5007 1346.2 26.5007Z" fill="#34334A"/>
<path d="M1346.1 7.14551C1342.42 7.14551 1338.84 8.22078 1335.68 10.2638L1337.47 12.952C1339.99 11.2315 1343.05 10.3713 1346.1 10.3713C1354.83 10.3713 1361.99 17.6831 1361.99 26.6079C1361.99 35.5326 1354.83 42.8444 1346.1 42.8444C1337.36 42.8444 1330.31 35.4251 1330.31 26.5003C1330.31 25.5326 1330.31 24.5649 1330.52 23.7046L1333.05 24.995V14.7799L1325.05 20.8014L1327.58 22.0917C1327.26 23.5971 1327.16 24.995 1327.16 26.5003C1327.16 37.253 1335.68 45.9627 1346.2 45.9627C1356.73 45.9627 1365.25 37.253 1365.25 26.5003C1365.25 15.7477 1356.62 7.14551 1346.1 7.14551Z" fill="#34334A"/>
<path d="M1392.61 25.21C1389.14 25.21 1386.4 28.1132 1386.4 31.554C1386.4 35.1024 1389.24 37.8981 1392.61 37.8981C1395.98 37.8981 1398.82 34.9949 1398.82 31.554C1398.92 28.1132 1396.08 25.21 1392.61 25.21ZM1395.77 31.8766C1395.77 31.9842 1395.77 32.0917 1395.66 32.3067C1395.56 32.6293 1395.45 32.8444 1395.35 33.0594C1395.35 33.0594 1395.35 33.0594 1395.35 33.167C1395.24 33.2745 1395.24 33.382 1395.14 33.4895C1394.61 34.2422 1393.66 34.7799 1392.72 34.7799C1391.03 34.7799 1389.56 33.382 1389.56 31.554C1389.56 29.8336 1390.93 28.3282 1392.72 28.3282C1393.77 28.3282 1394.61 28.8659 1395.14 29.6186C1395.24 29.7261 1395.35 29.8336 1395.35 29.9411C1395.35 29.9411 1395.35 29.9411 1395.35 30.0487C1395.45 30.2637 1395.56 30.5863 1395.66 30.8014C1395.66 30.9089 1395.77 31.0164 1395.77 31.2315C1395.77 31.339 1395.77 31.4465 1395.77 31.554C1395.77 31.6616 1395.77 31.7691 1395.77 31.8766Z" fill="#34334A"/>
<path d="M1372.93 23.5969C1372.93 20.8012 1375.14 18.3281 1378.72 18.3281C1381.03 18.3281 1382.93 19.0808 1383.98 20.3711L1382.19 22.8443C1381.25 21.984 1380.4 21.4464 1378.93 21.4464C1377.35 21.4464 1376.3 22.3066 1376.3 23.4894C1376.3 27.3604 1384.72 26.1776 1384.72 32.5217C1384.72 35.7475 1381.98 37.898 1378.51 37.898C1376.09 37.898 1373.35 36.8227 1372.41 34.8873L1374.3 32.6292C1375.35 34.027 1377.14 34.7797 1378.51 34.7797C1380.09 34.7797 1381.25 34.027 1381.25 32.5217C1381.35 28.8658 1372.93 29.8335 1372.93 23.5969Z" fill="#34334A"/>
<path d="M1401.45 22.1992H1404.5V37.5756H1401.45V22.1992Z" fill="#34334A"/>
<path d="M1420.6 25.425H1423.65V26.6078C1424.18 25.8551 1424.92 25.21 1426.39 25.21C1427.34 25.21 1427.86 25.425 1428.28 25.6401L1427.23 28.5433C1426.6 28.2207 1426.28 28.1132 1425.65 28.1132C1424.6 28.1132 1424.07 28.7583 1423.65 29.4035V37.6831H1420.6V25.425Z" fill="#34334A"/>
<path d="M1437.86 23.5969C1437.86 20.8012 1440.07 18.3281 1443.65 18.3281C1445.96 18.3281 1447.86 19.0808 1448.91 20.3711L1447.12 22.8443C1446.17 21.984 1445.33 21.4464 1443.86 21.4464C1442.28 21.4464 1441.23 22.3066 1441.23 23.4894C1441.23 27.3604 1449.64 26.1776 1449.64 32.5217C1449.64 35.7475 1446.91 37.898 1443.44 37.898C1441.02 37.898 1438.28 36.8227 1437.33 34.8873L1439.23 32.6292C1440.28 34.027 1442.07 34.7797 1443.44 34.7797C1445.01 34.7797 1446.17 34.027 1446.17 32.5217C1446.17 28.8658 1437.86 29.8335 1437.86 23.5969Z" fill="#34334A"/>
<path d="M1452.06 22.0918H1455.12V25.4251H1458.9V28.3284H1455.12V32.737C1455.12 34.0273 1455.54 34.8875 1456.59 34.8875C1457.43 34.8875 1457.96 34.4574 1458.38 34.1348L1459.33 36.5004C1458.59 37.1456 1457.33 37.6832 1455.85 37.6832C1453.12 37.6832 1452.17 35.8552 1452.17 32.737V22.0918H1452.06Z" fill="#34334A"/>
<path d="M1462.38 26.2853C1463.43 25.6402 1465.01 25.1025 1466.59 25.1025C1470.06 25.1025 1471.32 26.9305 1471.32 30.1563V37.6832H1468.69V36.2853C1468.06 37.2531 1466.8 37.8982 1465.22 37.8982C1463.01 37.8982 1461.54 36.5004 1461.54 34.1348C1461.54 31.4466 1463.43 30.1563 1465.85 30.1563C1466.9 30.1563 1467.95 30.4789 1468.59 30.909C1468.69 28.866 1468.17 27.7907 1466.38 27.7907C1465.01 27.7907 1464.17 28.2208 1463.22 28.6509L1462.38 26.2853ZM1468.48 34.0273V32.7369C1467.95 32.3068 1467.22 32.0918 1466.38 32.0918C1465.32 32.0918 1464.48 32.6294 1464.48 33.5972C1464.48 34.5649 1465.22 34.995 1466.17 34.995C1467.43 35.2101 1468.06 34.5649 1468.48 34.0273Z" fill="#34334A"/>
<path d="M1408.18 26.2853C1409.24 25.6402 1410.81 25.1025 1412.39 25.1025C1415.87 25.1025 1417.13 26.9305 1417.13 30.1563V37.6832H1414.5V36.2853C1413.87 37.2531 1412.6 37.8982 1411.03 37.8982C1408.82 37.8982 1407.34 36.5004 1407.34 34.1348C1407.34 31.4466 1409.24 30.1563 1411.66 30.1563C1412.71 30.1563 1413.76 30.4789 1414.39 30.909C1414.5 28.866 1413.97 27.7907 1412.18 27.7907C1410.81 27.7907 1409.97 28.2208 1409.03 28.6509L1408.18 26.2853ZM1414.29 34.0273V32.7369C1413.76 32.3068 1413.02 32.0918 1412.18 32.0918C1411.13 32.0918 1410.29 32.6294 1410.29 33.5972C1410.29 34.5649 1411.03 34.995 1411.97 34.995C1413.23 35.2101 1413.97 34.5649 1414.29 34.0273Z" fill="#34334A"/>
<path d="M1477.11 37.5756V31.339H1480.37V28.4358H1477.11V27.468C1477.11 25.7476 1477.85 25.1024 1478.9 25.1024C1479.64 25.1024 1480.27 25.3175 1480.69 25.7476L1481.74 23.382C1481.11 22.7369 1479.85 22.1992 1478.37 22.1992C1475.74 22.1992 1474.16 23.9196 1474.16 27.253V37.6831H1477.11V37.5756Z" fill="#34334A"/>
<path d="M1485.74 37.5756V31.339H1489V28.4358H1485.74V27.468C1485.74 25.7476 1486.48 25.1024 1487.53 25.1024C1488.26 25.1024 1488.9 25.3175 1489.32 25.7476L1490.37 23.382C1489.74 22.7369 1488.47 22.1992 1487 22.1992C1484.37 22.1992 1482.79 23.9196 1482.79 27.253V37.6831H1485.74V37.5756Z" fill="#34334A"/>
<g clip-path="url(#clip3_491_15723)">
<path d="M1567.74 35.2008C1566.39 36.5512 1564.72 37.2412 1562.73 37.2412C1561.23 37.2412 1560.02 36.8386 1559.09 36.0345V42.5H1555V22.8454H1559.04C1559.04 22.8454 1561.2 22.5009 1562.73 22.5009C1564.72 22.5009 1566.39 23.1908 1567.74 24.5412C1569.1 25.8916 1569.79 27.6731 1569.79 29.8857C1569.79 32.0689 1569.1 33.8504 1567.74 35.2008ZM1559.04 29.8857C1559.04 30.9488 1559.35 31.8395 1559.96 32.5286C1560.59 33.2185 1561.37 33.563 1562.32 33.563C1563.27 33.563 1564.05 33.2185 1564.66 32.5286C1565.29 31.8395 1565.61 30.9488 1565.61 29.8857C1565.61 28.8227 1565.29 27.9311 1564.66 27.242C1564.05 26.5521 1563.27 26.2076 1562.32 26.2076C1561.37 26.2076 1560.59 26.5521 1559.96 27.242C1559.35 27.9311 1559.04 28.8218 1559.04 29.8857ZM1589.39 22.8454H1593.52V36.9252H1589.39V35.8908C1588.3 36.7806 1587 37.2412 1585.47 37.2412C1583.43 37.2412 1581.67 36.5512 1580.23 35.1428C1578.78 33.7353 1578.06 31.9823 1578.06 29.8849C1578.06 27.7874 1578.78 26.0345 1580.23 24.6269C1581.67 23.2185 1583.43 22.5 1585.47 22.5C1587.17 22.5 1589.39 22.8463 1589.39 22.8463V22.8454ZM1588.38 32.3572C1589.05 31.6387 1589.39 30.7765 1589.39 29.8C1589.39 27.8463 1587.98 26.2941 1585.79 26.2941C1584.78 26.2941 1583.94 26.6395 1583.28 27.3295C1582.62 28.0185 1582.3 28.853 1582.3 29.8C1582.3 30.7488 1582.65 31.6101 1583.31 32.3277C1583.97 33.0462 1584.81 33.4202 1585.79 33.4202C1586.86 33.4202 1587.72 33.0757 1588.38 32.3572ZM1615.43 26.6092V36.9252H1611.34V22.8454H1620V26.6092H1615.43Z" fill="#34334A"/>
<path d="M1568 16.4414V20.2596H1571.95V36.8455H1576.05V16.4414H1568ZM1624.32 15.5C1625.85 15.5 1627.02 16.6829 1627.02 18.2267C1627.02 19.7046 1625.78 20.92 1624.32 20.92C1623.61 20.917 1622.94 20.6323 1622.44 20.1278C1621.94 19.6234 1621.66 18.9401 1621.65 18.2267C1621.65 16.6829 1622.86 15.5 1624.32 15.5ZM1626.4 22.5622H1622.27V36.8455H1626.4V22.5622ZM1632.8 22.5622L1634.93 26.2066L1637.07 22.5622H1641.68L1637.24 29.4997L1642 36.8455H1637.41L1634.93 32.7937L1632.48 36.8455H1627.86L1632.62 29.4997L1628.18 22.5622H1632.8H1632.8ZM1602.5 42.5H1598.18L1600.48 36.8446L1594.97 22.5622H1599.53L1602.71 31.3939L1605.99 22.5622H1610.38L1602.5 42.5Z" fill="#34334A"/>
</g>
<path d="M1788.09 39.4549L1786.95 37.1646C1786.9 37.0794 1786.77 37.0202 1786.66 37.0923C1785.73 37.7394 1784.49 38.1205 1783.11 38.1205C1780.14 38.1205 1778.05 35.7067 1778.05 32.7277C1778.05 29.7484 1780.14 27.3331 1783.11 27.3331C1784.49 27.3331 1785.73 27.7158 1786.66 28.363C1786.76 28.4222 1786.89 28.395 1786.95 28.2926L1788.09 25.9986C1788.15 25.8818 1788.12 25.7665 1788.02 25.7041C1786.63 24.7224 1784.94 24.1455 1783.11 24.1455C1778.38 24.1455 1774.55 27.9882 1774.55 32.7277C1774.55 37.4655 1778.38 41.3096 1783.11 41.3096C1784.94 41.3096 1786.63 40.7315 1788.02 39.7512C1788.12 39.6823 1788.15 39.5734 1788.09 39.4549ZM1755.36 39.4549L1754.22 37.1646C1754.17 37.0794 1754.04 37.0202 1753.93 37.0923C1753 37.7394 1751.75 38.1205 1750.37 38.1205C1747.4 38.1205 1745.32 35.7067 1745.32 32.7277C1745.32 29.7484 1747.4 27.3331 1750.37 27.3331C1751.76 27.3331 1753 27.7158 1753.93 28.363C1754.03 28.4222 1754.16 28.395 1754.22 28.2926L1755.36 25.9986C1755.42 25.8818 1755.39 25.7665 1755.29 25.7041C1753.9 24.7224 1752.21 24.1455 1750.37 24.1455C1745.65 24.1455 1741.82 27.9882 1741.82 32.7277C1741.82 37.4655 1745.65 41.3096 1750.37 41.3096C1752.21 41.3096 1753.9 40.7315 1755.29 39.7512C1755.39 39.6823 1755.42 39.5734 1755.36 39.4549ZM1771.87 24.554H1768.95C1768.81 24.5555 1768.69 24.6244 1768.62 24.7319L1761.48 35.0597H1761.23L1761.48 29.4586V24.759C1761.48 24.6454 1761.39 24.554 1761.28 24.554H1758.42C1758.31 24.554 1758.22 24.6469 1758.22 24.759V40.6961C1758.22 40.8083 1758.31 40.8996 1758.42 40.8996H1760.77C1760.91 40.8996 1761.03 40.8307 1761.11 40.7233L1768.81 29.5773H1769.06L1768.81 35.1782V40.6946V40.6961C1768.81 40.8083 1768.9 40.8996 1769.02 40.8996H1771.87C1771.98 40.8996 1772.07 40.8098 1772.07 40.6993V24.759C1772.07 24.6469 1771.98 24.5555 1771.87 24.554ZM1739.03 24.554H1736.11C1735.97 24.5555 1735.85 24.6244 1735.78 24.7319L1728.64 35.0597H1728.39L1728.64 29.4586V24.759C1728.64 24.6454 1728.54 24.554 1728.43 24.554H1725.58C1725.47 24.554 1725.38 24.6469 1725.38 24.759V40.6961C1725.38 40.8083 1725.47 40.8996 1725.58 40.8996H1727.93C1728.07 40.8996 1728.19 40.8307 1728.26 40.7233L1735.97 29.5773H1736.22L1735.97 35.1782V40.6946V40.6961C1735.97 40.8083 1736.06 40.8996 1736.18 40.8996H1739.03C1739.14 40.8996 1739.23 40.8098 1739.23 40.6993V24.759C1739.23 24.6469 1739.14 24.5555 1739.03 24.554ZM1721.3 24.759L1721.3 40.6993C1721.3 40.8098 1721.21 40.8996 1721.1 40.8996H1718.24C1718.13 40.8996 1718.04 40.8083 1718.04 40.6961V35.1782L1718.28 29.6971H1718.04L1713.41 36.3236H1712.89L1708.26 29.6971H1708.01L1708.26 35.1782V40.6961C1708.26 40.8083 1708.17 40.8996 1708.06 40.8996H1705.2C1705.09 40.8996 1705 40.8098 1705 40.6993V24.759C1705 24.6469 1705.09 24.554 1705.2 24.554H1708.05C1708.18 24.554 1708.31 24.6229 1708.38 24.727L1713.15 31.5697L1717.92 24.727C1717.99 24.6229 1718.11 24.554 1718.25 24.554H1721.1C1721.21 24.554 1721.3 24.6469 1721.3 24.759Z" fill="#34334A"/>
<path d="M1798.73 9.84385C1795.88 9.84385 1793.29 10.9748 1791.38 12.8118C1791.3 12.8855 1791.3 13.0183 1791.38 13.1001L1793.4 15.1231C1793.48 15.2049 1793.61 15.2049 1793.69 15.1264C1795 13.8787 1796.77 13.1129 1798.73 13.1129C1802.78 13.1129 1806.06 16.406 1806.06 20.4682C1806.06 24.5302 1802.78 27.8232 1798.73 27.8232C1796.78 27.8232 1795 27.0593 1793.69 25.813C1793.6 25.7297 1793.48 25.7329 1793.4 25.813L1791.38 27.8359C1791.3 27.9162 1791.3 28.0443 1791.38 28.1229C1793.29 29.9614 1795.88 31.0924 1798.73 31.0924C1804.58 31.0924 1809.32 26.3353 1809.32 20.4682C1809.32 14.601 1804.58 9.84385 1798.73 9.84385ZM1798.73 3.30566V6.37133C1798.73 6.48338 1798.81 6.57803 1798.94 6.57803C1806.49 6.6916 1812.58 12.8664 1812.58 20.4682C1812.58 28.0699 1806.49 34.2461 1798.94 34.3596C1798.82 34.3596 1798.73 34.4528 1798.73 34.5648V37.4255C1798.73 37.5343 1798.81 37.6227 1798.92 37.629C1808.29 37.5232 1815.84 29.8813 1815.84 20.4682C1815.84 10.9891 1808.18 3.30566 1798.73 3.30566ZM1798.73 0.241504C1798.73 0.129448 1798.64 0.0396002 1798.53 0.0380859C1787.43 0.1456 1778.46 9.14399 1778.35 20.2679C1778.35 20.3784 1778.44 20.4666 1778.55 20.4682H1781.41C1781.52 20.4666 1781.61 20.3767 1781.61 20.2584C1781.73 10.8771 1789.35 3.30566 1798.73 3.30566V0.241504ZM1802.8 20.4682C1802.8 22.7248 1800.98 24.5541 1798.73 24.5541C1796.48 24.5541 1794.65 22.7248 1794.65 20.4682C1794.65 18.2113 1796.48 16.382 1798.73 16.382C1800.98 16.382 1802.8 18.2113 1802.8 20.4682Z" fill="#34334A"/>
<path d="M1931.81 13.1186V14.3048H1941.98C1942.66 14.3048 1943.68 14.3048 1944.35 14.9833C1945.02 15.6617 1945.03 16.6794 1945.03 17.3476V27.5242C1945.03 28.2027 1945.03 29.2203 1944.35 29.8885C1943.67 30.5669 1942.65 30.5669 1941.98 30.5669H1937.07C1936.22 30.5669 1935.12 30.5669 1934.71 29.6336C1934.28 28.7002 1934.88 27.8532 1935.39 27.1665L1942.01 18.3467H1931.83L1927.76 23.7743C1927.08 24.683 1926.49 25.4704 1926.49 26.488C1926.49 27.5057 1927.03 28.2376 1927.76 29.2018L1928.78 30.5587C1929.79 31.9156 1930.81 33.2725 1932.17 33.9509C1933.52 34.6294 1935.13 34.6294 1937.35 34.6294H1941.75C1944.3 34.6294 1948.1 34.6294 1950.65 32.0801C1953.2 29.5308 1953.2 25.8096 1953.2 24.4527V20.382C1953.2 19.0252 1953.2 15.304 1950.65 12.7547C1948.1 10.2054 1944.3 10.2054 1941.75 10.2054L1934.72 10.2031C1934.04 10.2029 1933.19 10.2031 1932.52 10.8816C1931.84 11.56 1931.84 12.407 1931.84 13.0814" fill="#34334A"/>
<path d="M1919.68 18.3818H1929.75L1917.62 34.7056H1907.55L1919.68 18.3818Z" fill="#34334A"/>
<path d="M1880 21.2601C1880 20.5816 1880 19.7346 1880.68 19.0603C1881.36 18.3859 1882.2 18.3818 1882.88 18.3818H1899.92C1902.12 18.3818 1903.75 18.3818 1905.1 19.0603C1906.46 19.7387 1907.47 21.0956 1908.49 22.4525L1909.51 23.8094C1910.23 24.7715 1910.78 25.5055 1910.78 26.5232C1910.78 27.5408 1910.19 28.3282 1909.51 29.2369L1905.44 34.6645H1895.26L1901.88 25.8447C1902.39 25.1663 1902.99 24.3192 1902.56 23.3776C1902.14 22.4443 1901.04 22.4443 1900.2 22.4443H1892.22V42.7976H1884.08V22.4443H1880.01V21.256" fill="#34334A"/>
<defs>
<clipPath id="clip0_491_15723">
<rect width="130" height="36" fill="white" transform="translate(481 8.5)"/>
</clipPath>
<clipPath id="clip1_491_15723">
<rect width="131" height="42" fill="white" transform="translate(675 5.5)"/>
</clipPath>
<clipPath id="clip2_491_15723">
<rect width="98" height="42" fill="white" transform="translate(1034 5.5)"/>
</clipPath>
<clipPath id="clip3_491_15723">
<rect width="86" height="42" fill="white" transform="translate(1555 5.5)"/>
</clipPath>
</defs>
</svg>
