<svg width="48" height="49" viewBox="0 0 48 49" fill="none" xmlns="http://www.w3.org/2000/svg">
<path d="M22.2754 16.6299H23.1718C23.2266 16.6299 23.2791 16.6504 23.3179 16.6869C23.3566 16.7234 23.3783 16.7729 23.3783 16.8245V33.3062C23.3783 33.3578 23.3566 33.4073 23.3179 33.4438C23.2791 33.4803 23.2266 33.5008 23.1718 33.5008H22.2754C21.0999 33.5008 19.9358 33.2826 18.8497 32.8585C17.7637 32.4344 16.777 31.8129 15.9459 31.0293C15.1148 30.2458 14.4557 29.3156 14.0062 28.292C13.5567 27.2683 13.3256 26.1713 13.3262 25.0634V25.0634C13.3262 22.8267 14.269 20.6816 15.9474 19.1C17.6257 17.5184 19.9019 16.6299 22.2754 16.6299V16.6299Z" fill="#F2F2F2"/>
<path d="M32.9587 16.6313H25.8435C25.7271 16.6313 25.6328 16.7202 25.6328 16.8299V23.8173C25.6328 23.9269 25.7271 24.0158 25.8435 24.0158H32.9587C33.0751 24.0158 33.1694 23.9269 33.1694 23.8173V16.8299C33.1694 16.7202 33.0751 16.6313 32.9587 16.6313Z" fill="#F2F2F2"/>
<path d="M32.9587 26.0542H25.8435C25.7271 26.0542 25.6328 26.1431 25.6328 26.2527V33.2966C25.6328 33.4062 25.7271 33.4951 25.8435 33.4951H32.9587C33.0751 33.4951 33.1694 33.4062 33.1694 33.2966V26.2527C33.1694 26.1431 33.0751 26.0542 32.9587 26.0542Z" fill="#F2F2F2"/>
</svg>
