<svg width="256" height="128" viewBox="0 0 256 128" fill="none" xmlns="http://www.w3.org/2000/svg">
<path d="M0.686895 38.3199H4.83089V29.9199H30.3109V38.3199H34.4549V25.7199H29.6949V1.63992H9.98289L8.41489 15.1359C7.7429 20.9599 6.79089 24.0399 4.38289 25.7199H0.686895V38.3199ZM9.19889 25.7199V25.1599C11.2709 23.3119 12.1109 21.1839 12.6149 17.0959L13.9589 5.83992H25.0469V25.7199H9.19889ZM49.3032 31.0399C58.1512 31.0399 64.4792 24.7119 64.4792 15.7519C64.4792 6.84792 58.1512 0.51992 49.3032 0.51992C40.3992 0.51992 34.1272 6.84792 34.1272 15.7519C34.1272 24.7119 40.3992 31.0399 49.3032 31.0399ZM49.3032 26.8399C43.1432 26.8399 38.7752 22.1919 38.7752 15.7519C38.7752 9.36792 43.1432 4.71992 49.3032 4.71992C55.4072 4.71992 59.8312 9.36792 59.8312 15.7519C59.8312 22.1919 55.4072 26.8399 49.3032 26.8399ZM77.4489 29.9199H91.8409C97.3289 29.9199 101.193 26.5599 101.193 21.7439C101.193 18.1599 99.0089 15.9759 96.0409 15.3599V14.7999C98.4489 13.9599 100.353 11.7199 100.353 8.69592C100.353 4.66392 96.7129 1.63992 91.6169 1.63992H77.4489V29.9199ZM82.0969 13.1199V5.61592H91.1129C93.8009 5.61592 95.7609 7.35192 95.7609 9.42392C95.7609 11.4959 93.8009 13.1199 91.1129 13.1199H82.0969ZM82.0969 25.9439V17.1519H91.0569C94.3049 17.1519 96.5449 18.9439 96.5449 21.4079C96.5449 23.8719 94.3049 25.9439 91.0569 25.9439H82.0969ZM112.129 30.8159C116.665 30.8159 119.969 29.0239 121.985 25.7759H122.489V29.9199H127.137V11.1599C127.137 4.71992 122.489 0.575919 115.153 0.575919C108.041 0.575919 103.393 4.38392 103.393 10.3759H108.097C108.041 6.84792 110.841 4.77592 115.097 4.77592C119.745 4.77592 122.489 7.23992 122.489 11.0479V12.1679L114.649 13.1199C106.249 14.0719 101.993 17.7679 101.993 22.7519C101.993 27.6239 106.025 30.8159 112.129 30.8159ZM112.801 26.9519C108.993 26.9519 106.641 25.3279 106.641 22.6399C106.641 20.0079 108.881 17.7679 114.649 17.0399L122.489 16.1439V18.6639C122.489 23.4239 118.569 26.9519 112.801 26.9519ZM131.126 29.9199H169.878V1.63992H165.23V25.7199H152.798V1.63992H148.15V25.7199H135.774V1.63992H131.126V29.9199ZM188.202 31.0399C194.474 31.0399 199.57 28.1279 201.81 23.3119L197.946 21.3519C196.21 24.7119 192.514 26.8399 188.258 26.8399C182.546 26.8399 178.402 23.0319 177.73 17.3199H202.762C202.818 16.7039 202.818 16.0319 202.818 15.4719C202.818 6.79192 196.546 0.51992 187.922 0.51992C179.186 0.51992 172.914 6.79192 172.914 15.4159C172.914 24.4879 179.354 31.0399 188.202 31.0399ZM177.786 13.2319C178.57 8.13592 182.49 4.71992 187.754 4.71992C193.074 4.71992 197.106 8.13592 197.89 13.2319H177.786ZM205.857 29.9199H210.505V5.83992H225.513V1.63992H205.857V29.9199ZM240.125 31.0399C248.973 31.0399 255.301 24.7119 255.301 15.7519C255.301 6.84792 248.973 0.51992 240.125 0.51992C231.221 0.51992 224.949 6.84792 224.949 15.7519C224.949 24.7119 231.221 31.0399 240.125 31.0399ZM240.125 26.8399C233.965 26.8399 229.597 22.1919 229.597 15.7519C229.597 9.36792 233.965 4.71992 240.125 4.71992C246.229 4.71992 250.653 9.36792 250.653 15.7519C250.653 22.1919 246.229 26.8399 240.125 26.8399ZM3.87889 77.9199H8.5269V53.8399H25.5509V77.9199H30.1989V49.6399H3.87889V77.9199ZM50.2762 48.5199C45.6282 48.5199 41.9882 50.5359 39.9162 53.9519H39.4122V49.6399H34.7642V90.7999H39.4122V73.7199H39.9162C41.9882 77.0799 45.7962 79.0399 50.3322 79.0399C58.5642 79.0399 64.8922 72.5999 64.8922 63.7519C64.8922 54.9039 58.5082 48.5199 50.2762 48.5199ZM49.7722 52.7199C55.8202 52.7199 60.2442 57.4239 60.2442 63.7519C60.2442 69.9679 55.8202 74.8399 49.7722 74.8399C43.6682 74.8399 39.2442 69.9679 39.2442 63.7519C39.2442 57.5359 43.6682 52.7199 49.7722 52.7199ZM81.6651 79.0399C90.5131 79.0399 96.8411 72.7119 96.8411 63.7519C96.8411 54.8479 90.5131 48.5199 81.6651 48.5199C72.7611 48.5199 66.4891 54.8479 66.4891 63.7519C66.4891 72.7119 72.7611 79.0399 81.6651 79.0399ZM81.6651 74.8399C75.5051 74.8399 71.1371 70.1919 71.1371 63.7519C71.1371 57.3679 75.5051 52.7199 81.6651 52.7199C87.7691 52.7199 92.1931 57.3679 92.1931 63.7519C92.1931 70.1919 87.7691 74.8399 81.6651 74.8399ZM113.703 79.0399C119.975 79.0399 125.071 76.1279 127.311 71.3119L123.447 69.3519C121.711 72.7119 118.015 74.8399 113.759 74.8399C108.047 74.8399 103.903 71.0319 103.231 65.3199H128.263C128.319 64.7039 128.319 64.0319 128.319 63.4719C128.319 54.7919 122.047 48.5199 113.423 48.5199C104.687 48.5199 98.4148 54.7919 98.4148 63.4159C98.4148 72.4879 104.855 79.0399 113.703 79.0399ZM103.287 61.2319C104.071 56.1359 107.991 52.7199 113.255 52.7199C118.575 52.7199 122.607 56.1359 123.391 61.2319H103.287ZM131.358 77.9199H136.006V64.7599H136.566L148.942 77.9199H155.158L140.878 63.1919L154.822 49.6399H148.662L136.566 61.7359H136.006V49.6399H131.358V77.9199ZM162.63 77.9199H167.278V53.8399H177.47V49.6399H152.382V53.8399H162.63V77.9199ZM186.806 78.8159C191.342 78.8159 194.646 77.0239 196.662 73.7759H197.166V77.9199H201.814V59.1599C201.814 52.7199 197.166 48.5759 189.83 48.5759C182.718 48.5759 178.07 52.3839 178.07 58.3759H182.774C182.718 54.8479 185.518 52.7759 189.774 52.7759C194.422 52.7759 197.166 55.2399 197.166 59.0479V60.1679L189.326 61.1199C180.926 62.0719 176.67 65.7679 176.67 70.7519C176.67 75.6239 180.702 78.8159 186.806 78.8159ZM187.478 74.9519C183.67 74.9519 181.318 73.3279 181.318 70.6399C181.318 68.0079 183.558 65.7679 189.326 65.0399L197.166 64.1439V66.6639C197.166 71.4239 193.246 74.9519 187.478 74.9519ZM17.5429 127.04C26.3909 127.04 32.7189 120.712 32.7189 111.752C32.7189 102.848 26.3909 96.5199 17.5429 96.5199C8.63889 96.5199 2.36689 102.848 2.36689 111.752C2.36689 120.712 8.63889 127.04 17.5429 127.04ZM17.5429 122.84C11.3829 122.84 7.01489 118.192 7.01489 111.752C7.01489 105.368 11.3829 100.72 17.5429 100.72C23.6469 100.72 28.0709 105.368 28.0709 111.752C28.0709 118.192 23.6469 122.84 17.5429 122.84ZM49.0206 127.04C55.7406 127.04 61.6206 122.728 62.9086 116.68L58.3726 116.12C57.1966 120.096 53.4446 122.84 49.0206 122.84C43.2526 122.84 38.9406 118.304 38.9406 111.752C38.8846 105.256 43.3086 100.72 49.0766 100.72C53.3886 100.72 57.2526 103.464 58.3166 107.552L62.7966 106.936C61.7886 100.888 55.9646 96.5199 49.0206 96.5199C40.5086 96.5199 34.2926 102.904 34.2926 111.752C34.2366 120.6 40.4526 127.04 49.0206 127.04ZM72.5988 125.92H77.2468V101.84H87.4388V97.6399H62.3508V101.84H72.5988V125.92ZM96.7746 126.816C101.311 126.816 104.615 125.024 106.631 121.776H107.135V125.92H111.783V107.16C111.783 100.72 107.135 96.5759 99.7986 96.5759C92.6866 96.5759 88.0386 100.384 88.0386 106.376H92.7426C92.6866 102.848 95.4866 100.776 99.7426 100.776C104.391 100.776 107.135 103.24 107.135 107.048V108.168L99.2946 109.12C90.8946 110.072 86.6386 113.768 86.6386 118.752C86.6386 123.624 90.6706 126.816 96.7746 126.816ZM97.4466 122.952C93.6386 122.952 91.2866 121.328 91.2866 118.64C91.2866 116.008 93.5266 113.768 99.2946 113.04L107.135 112.144V114.664C107.135 119.424 103.215 122.952 97.4466 122.952ZM112.076 125.92C116.892 125.92 120.868 123.456 121.82 116.568L123.892 101.84H134.196V125.92H138.844V97.6399H119.748L117.732 113.88C117.06 119.2 116.052 122 112.076 122V125.92ZM157.04 127.04C165.888 127.04 172.216 120.712 172.216 111.752C172.216 102.848 165.888 96.5199 157.04 96.5199C148.136 96.5199 141.864 102.848 141.864 111.752C141.864 120.712 148.136 127.04 157.04 127.04ZM157.04 122.84C150.88 122.84 146.512 118.192 146.512 111.752C146.512 105.368 150.88 100.72 157.04 100.72C163.144 100.72 167.568 105.368 167.568 111.752C167.568 118.192 163.144 122.84 157.04 122.84ZM188.517 127.04C195.237 127.04 201.117 122.728 202.405 116.68L197.869 116.12C196.693 120.096 192.941 122.84 188.517 122.84C182.749 122.84 178.437 118.304 178.437 111.752C178.381 105.256 182.805 100.72 188.573 100.72C192.885 100.72 196.749 103.464 197.813 107.552L202.293 106.936C201.285 100.888 195.461 96.5199 188.517 96.5199C180.005 96.5199 173.789 102.904 173.789 111.752C173.733 120.6 179.949 127.04 188.517 127.04ZM205.475 125.92H217.907C224.739 125.92 229.219 122.056 229.219 116.064C229.219 110.24 224.739 106.32 217.907 106.32H210.123V97.6399H205.475V125.92ZM210.123 121.72V110.52H217.907C221.939 110.52 224.627 112.704 224.627 116.12C224.627 119.536 221.995 121.72 217.907 121.72H210.123Z" fill="#FCFBFD"/>
</svg>
