<svg width="80" height="15" viewBox="0 0 80 15" fill="none" xmlns="http://www.w3.org/2000/svg">
<path fill-rule="evenodd" clip-rule="evenodd" d="M69.2455 0.745117H72.0086C76.0484 0.745117 79.0182 3.64896 79.0182 7.52286C79.0182 11.3967 76.0436 14.299 72.0086 14.299H69.2455C65.2008 14.299 62.2214 11.3936 62.2214 7.52286C62.2214 3.65211 65.2008 0.745117 69.2455 0.745117ZM69.2455 12.2347H72.0086C74.7574 12.2347 76.7965 10.2192 76.7965 7.51814C76.7965 4.81711 74.7526 2.80155 72.0086 2.80155H69.2455C66.4919 2.80155 64.44 4.8344 64.44 7.51814C64.44 10.2019 66.4967 12.2347 69.2455 12.2347Z" fill="#F2F2F2"/>
<path d="M13.8174 9.23341C13.2215 11.087 11.6453 12.2127 9.61098 12.2127H6.84462C4.17918 12.2127 2.22334 10.2522 2.22334 7.52757C2.22334 4.80296 4.17918 2.833 6.84462 2.833H9.61098C11.5812 2.833 13.135 3.88322 13.7757 5.62522H15.9847C15.2847 2.68364 12.7618 0.75927 9.61098 0.75927H6.84462C2.90572 0.75927 0 3.62067 0 7.52757C0 11.4345 2.90572 14.288 6.84462 14.288H9.61098C12.8146 14.288 15.3407 12.3102 16.0311 9.23655L13.8174 9.23341Z" fill="#F2F2F2"/>
<path d="M20.5194 12.0303V8.37339H28.3363V6.40814H20.5194V2.99491H28.8297V0.990356H18.3329V14.0537H29.0379V12.0303H20.5194Z" fill="#F2F2F2"/>
<path fill-rule="evenodd" clip-rule="evenodd" d="M31.6715 0.990356H39.1344C43.0493 0.990356 45.8813 3.72912 45.8813 7.51811C45.8813 11.3071 43.0445 14.0537 39.1344 14.0537H31.6715V0.990356ZM33.858 12.0539H39.0687C41.7582 12.0539 43.6484 10.1578 43.6484 7.51811C43.6484 4.8784 41.7582 2.99176 39.0687 2.99176H33.858V12.0539Z" fill="#F2F2F2"/>
<path fill-rule="evenodd" clip-rule="evenodd" d="M57.6834 8.91737C58.4828 8.64326 59.1742 8.12954 59.66 7.44879C60.1457 6.76805 60.4013 5.95469 60.3905 5.12366C60.3905 2.71506 58.4859 0.990356 55.9214 0.990356H47.9699V14.0537H50.1564V9.21923H55.4425L58.3017 14.0537H60.7557L57.6834 8.91737ZM55.7933 7.21468H50.1564V2.99491H55.7933C57.2349 2.99491 58.1672 3.89263 58.1672 5.10479C58.1672 6.31696 57.2413 7.21468 55.7933 7.21468Z" fill="#F2F2F2"/>
</svg>
