<svg width="256" height="256" viewBox="0 0 256 256" fill="none" xmlns="http://www.w3.org/2000/svg">
<rect width="256" height="256" rx="128" fill="#2F14D5"/>
<path d="M117.697 183.314H122.584C122.883 183.314 123.17 183.18 123.381 182.941C123.592 182.701 123.711 182.377 123.711 182.038V73.9626C123.711 73.6241 123.592 73.2994 123.381 73.0601C123.17 72.8207 122.883 72.6863 122.584 72.6863H117.697C111.286 72.6863 104.939 74.1175 99.0168 76.8983C93.0947 79.679 87.7142 83.7548 83.1824 88.8927C78.6507 94.0306 75.0567 100.13 72.6056 106.842C70.1546 113.555 68.8945 120.749 68.8975 128.013V128.013C68.8975 142.68 74.0388 156.746 83.1904 167.117C92.342 177.488 104.754 183.314 117.697 183.314V183.314Z" fill="#F2F2F2"/>
<path d="M175.955 183.306H137.157C136.522 183.306 136.008 182.723 136.008 182.004V136.185C136.008 135.466 136.522 134.883 137.157 134.883H175.955C176.589 134.883 177.104 135.466 177.104 136.185V182.004C177.104 182.723 176.589 183.306 175.955 183.306Z" fill="#F2F2F2"/>
<path d="M175.955 121.509H137.157C136.522 121.509 136.008 120.926 136.008 120.207V74.0183C136.008 73.2993 136.522 72.7165 137.157 72.7165H175.955C176.589 72.7165 177.104 73.2993 177.104 74.0183V120.207C177.104 120.926 176.589 121.509 175.955 121.509Z" fill="#F2F2F2"/>
</svg>
