<svg width="100" height="123" viewBox="0 0 100 123" fill="none" xmlns="http://www.w3.org/2000/svg">
<g clip-path="url(#clip0_94_33141)">
<path d="M50.0658 122.372C74.6508 122.372 92.3058 106.367 92.3058 84.5871C92.3058 63.9621 76.3008 48.7821 55.5108 46.9671L87.8508 11.9871V1.92206H13.1058V15.1221H64.9158V16.7721L33.8958 50.1021L38.3508 61.1571C40.9908 60.0021 45.6108 59.0121 49.4058 59.0121C65.4108 59.0121 77.2908 69.7371 77.2908 84.4221C77.2908 98.7771 65.7408 109.172 49.9008 109.172C33.8958 109.172 21.6858 96.4671 21.6858 79.3071H6.50576C7.49576 104.222 25.8108 122.372 50.0658 122.372Z" fill="#FAF2E5"/>
</g>
<defs>
<clipPath id="clip0_94_33141">
<rect width="100" height="123" fill="white"/>
</clipPath>
</defs>
</svg>
