<svg width="24" height="25" viewBox="0 0 24 25" fill="none" xmlns="http://www.w3.org/2000/svg">
<path d="M17.4427 4.25635C17.4427 4.25635 11.8839 6.25913 8.4043 12.3686L15.2421 16.1899C15.2398 16.1899 18.5936 10.1411 17.4427 4.25635Z" stroke="#34334A" stroke-miterlimit="10" stroke-linecap="round" stroke-linejoin="round"/>
<path d="M17.3758 10.0024C17.3758 10.0024 18.1041 15.7725 17.9872 17.7236L15.1257 16.1254" stroke="#34334A" stroke-miterlimit="10" stroke-linecap="round" stroke-linejoin="round"/>
<path d="M12.4616 7.25977C12.4616 7.25977 7.16581 9.66266 5.56763 10.7866L8.42907 12.3847" stroke="#34334A" stroke-miterlimit="10" stroke-linecap="round" stroke-linejoin="round"/>
<path d="M13.9264 12.138C14.824 12.138 15.5516 11.4104 15.5516 10.5129C15.5516 9.6153 14.824 8.8877 13.9264 8.8877C13.0289 8.8877 12.3013 9.6153 12.3013 10.5129C12.3013 11.4104 13.0289 12.138 13.9264 12.138Z" stroke="#34334A" stroke-miterlimit="10" stroke-linecap="round" stroke-linejoin="round"/>
<path d="M8.70084 12.3838C8.24903 13.9595 8.93012 14.9013 8.31197 17.7246C7.69383 20.5478 6.88013 20.9749 6.88013 20.9749C6.88013 20.9749 13.4527 20.5433 15.2397 16.1893" stroke="#34334A" stroke-miterlimit="10" stroke-linecap="round" stroke-linejoin="round"/>
</svg>
