<svg width="72" height="48" viewBox="0 0 72 48" fill="none" xmlns="http://www.w3.org/2000/svg">
<path d="M34.9799 9.23693V25.2H37.0185V9.23693C37.0185 8.96071 37.1251 8.69572 37.3148 8.49982L40.7992 4.92483L35.9992 0L31.1992 4.92483L34.6836 8.49982C34.8734 8.69572 34.9799 8.96071 34.9799 9.23693Z" fill="url(#paint0_radial_3787_213601)"/>
<path d="M21.2369 25.0201L37.2 25.02L37.2 22.9815L21.2369 22.9815C20.9607 22.9815 20.6957 22.8749 20.4998 22.6852L16.9248 19.2008L12 24.0008L16.9248 28.8008L20.4998 25.3164C20.6957 25.1266 20.9607 25.0201 21.2369 25.0201Z" fill="url(#paint1_radial_3787_213601)"/>
<path d="M50.7631 25.0201L34.8 25.02L34.8 22.9815L50.7631 22.9815C51.0393 22.9815 51.3043 22.8749 51.5002 22.6852L55.0752 19.2008L60 24.0008L55.0752 28.8008L51.5002 25.3164C51.3043 25.1266 51.0393 25.0201 50.7631 25.0201Z" fill="url(#paint2_radial_3787_213601)"/>
<path d="M52.7992 7.19922V12.2746C52.7992 12.4964 52.7557 12.716 52.6712 12.9208C52.5867 13.1256 52.4629 13.3117 52.3068 13.4683C52.1507 13.6249 51.9654 13.749 51.7615 13.8334C51.5577 13.9179 51.3392 13.9611 51.1188 13.9605H47.9224C47.7913 13.9597 47.6614 13.9851 47.5401 14.0349C47.4189 14.0848 47.3085 14.1583 47.2155 14.2511L37.6708 23.8564C37.4599 24.0654 37.2928 24.3147 37.179 24.5896C37.0653 24.8645 37.0072 25.1595 37.0084 25.4573V39.0379C37.0086 39.3046 37.1141 39.5604 37.3018 39.7489L39.5602 42.0295C39.7176 42.1859 39.8425 42.3721 39.9278 42.5775C40.0131 42.7828 40.057 43.0031 40.057 43.2257C40.057 43.4482 40.0131 43.6685 39.9278 43.8739C39.8425 44.0792 39.7176 44.2654 39.5602 44.4218L36.0037 47.9992L32.4472 44.4218C32.2898 44.2654 32.1648 44.0792 32.0795 43.8739C31.9942 43.6685 31.9503 43.4482 31.9503 43.2257C31.9503 43.0031 31.9942 42.7828 32.0795 42.5775C32.1648 42.3721 32.2898 42.1859 32.4472 42.0295L34.7055 39.7534C34.8925 39.5662 34.998 39.3121 34.999 39.0468V25.4573C35.0001 25.1595 34.9421 24.8645 34.8283 24.5896C34.7146 24.3147 34.5474 24.0654 34.3366 23.8564L24.7829 14.2511C24.5942 14.0648 24.3404 13.9605 24.0761 13.9605H20.8797C20.6592 13.9611 20.4408 13.9179 20.2369 13.8334C20.0331 13.749 19.8478 13.6249 19.6917 13.4683C19.5356 13.3117 19.4117 13.1256 19.3272 12.9208C19.2427 12.716 19.1992 12.4964 19.1992 12.2746V7.19922H24.2406C24.4612 7.19981 24.6796 7.24411 24.8833 7.3296C25.087 7.41508 25.2719 7.54008 25.4275 7.69746C25.5831 7.85484 25.7064 8.0415 25.7903 8.24681C25.8742 8.45211 25.9171 8.67203 25.9166 8.894V12.1092C25.9162 12.2403 25.9415 12.3701 25.9911 12.4914C26.0407 12.6126 26.1135 12.7228 26.2055 12.8157L35.4702 22.1348C35.5396 22.2048 35.622 22.2604 35.7128 22.2983C35.8036 22.3362 35.9009 22.3557 35.9992 22.3557C36.0975 22.3557 36.1948 22.3362 36.2856 22.2983C36.3764 22.2604 36.4589 22.2048 36.5282 22.1348L45.784 12.8246C45.8789 12.7316 45.9541 12.6203 46.0053 12.4974C46.0565 12.3745 46.0825 12.2424 46.0819 12.1092V8.894C46.0819 8.44529 46.2588 8.01489 46.5738 7.69719C46.8888 7.37948 47.3162 7.2004 47.7623 7.19922H52.7992Z" fill="white"/>
<defs>
<radialGradient id="paint0_radial_3787_213601" cx="0" cy="0" r="1" gradientUnits="userSpaceOnUse" gradientTransform="translate(36.08 24.3661) scale(22.2892 22.8689)">
<stop offset="0.28" stop-color="white" stop-opacity="0"/>
<stop offset="0.39" stop-color="white" stop-opacity="0.23"/>
<stop offset="0.5" stop-color="white" stop-opacity="0.47"/>
<stop offset="0.61" stop-color="white" stop-opacity="0.66"/>
<stop offset="0.72" stop-color="white" stop-opacity="0.81"/>
<stop offset="0.82" stop-color="white" stop-opacity="0.91"/>
<stop offset="0.92" stop-color="white" stop-opacity="0.98"/>
<stop offset="1" stop-color="white"/>
</radialGradient>
<radialGradient id="paint1_radial_3787_213601" cx="0" cy="0" r="1" gradientUnits="userSpaceOnUse" gradientTransform="translate(36.3661 23.92) rotate(-90) scale(22.2892 22.8689)">
<stop offset="0.28" stop-color="white" stop-opacity="0"/>
<stop offset="0.39" stop-color="white" stop-opacity="0.23"/>
<stop offset="0.5" stop-color="white" stop-opacity="0.47"/>
<stop offset="0.61" stop-color="white" stop-opacity="0.66"/>
<stop offset="0.72" stop-color="white" stop-opacity="0.81"/>
<stop offset="0.82" stop-color="white" stop-opacity="0.91"/>
<stop offset="0.92" stop-color="white" stop-opacity="0.98"/>
<stop offset="1" stop-color="white"/>
</radialGradient>
<radialGradient id="paint2_radial_3787_213601" cx="0" cy="0" r="1" gradientUnits="userSpaceOnUse" gradientTransform="translate(35.6339 23.92) rotate(-90) scale(22.2892 22.8689)">
<stop offset="0.28" stop-color="white" stop-opacity="0"/>
<stop offset="0.39" stop-color="white" stop-opacity="0.23"/>
<stop offset="0.5" stop-color="white" stop-opacity="0.47"/>
<stop offset="0.61" stop-color="white" stop-opacity="0.66"/>
<stop offset="0.72" stop-color="white" stop-opacity="0.81"/>
<stop offset="0.82" stop-color="white" stop-opacity="0.91"/>
<stop offset="0.92" stop-color="white" stop-opacity="0.98"/>
<stop offset="1" stop-color="white"/>
</radialGradient>
</defs>
</svg>
