<svg width="72" height="48" viewBox="0 0 72 48" fill="none" xmlns="http://www.w3.org/2000/svg">
<path d="M62.9372 21.4369H54.5004C54.5377 21.4738 55.4747 23.4792 59.7496 25.4107L62.4487 26.6369C64.1363 27.4175 65.6736 27.9738 65.6736 29.6825C65.6736 31.9107 63.5361 32.4685 62.112 32.4685C59.7496 32.4685 57.688 31.2423 55.9259 28.8651L52.3643 31.4651V31.502C54.3887 34.9564 57.8012 36.9986 62.0761 36.9986C67.5875 36.9986 71 33.7671 71 29.5322C71 26.4865 69.3883 24.5919 65.9758 22.9201L62.9372 21.4369ZM65.6736 18.9859C67.9601 18.9859 69.7236 17.2403 69.7236 15.0121C69.7236 12.747 67.9614 11 65.6736 11C63.4243 11 61.6622 12.7456 61.6622 15.0121C61.6622 17.2403 63.4243 18.9859 65.6736 18.9859ZM10.9284 17.3291C5.33153 17.3291 1 21.6201 1 27.1646C1 32.709 5.37017 37 11.388 37C14.3009 37 16.8317 35.9748 18.9774 34.1895L16.8317 30.6955C15.2972 31.8725 13.6124 32.5942 11.5411 32.5942C8.7813 32.5942 6.82597 31.2655 6.21329 28.8733H19.5156C19.6688 28.2281 19.8606 27.1263 19.8606 26.0628C19.8606 21.2018 16.2563 17.3291 10.9284 17.3291ZM6.21329 25.2658C6.78872 22.9119 8.55224 21.4683 10.7366 21.4683C12.921 21.4683 14.8005 22.8736 14.8377 25.2658H6.21329ZM36.8624 11C29.4192 11 23.4318 16.6251 23.4318 24C23.4318 31.3749 29.4178 37 36.8624 37C44.307 37 50.369 31.3749 50.369 24C50.369 16.6251 44.3057 11 36.8624 11ZM36.9011 32.2484C32.1818 32.2484 28.7665 28.8651 28.7665 24C28.7665 19.1718 32.1818 15.7516 36.9011 15.7516C41.5445 15.7516 45.0356 19.1732 45.0356 24C45.0356 28.8651 41.5431 32.2484 36.9011 32.2484Z" fill="white"/>
</svg>
