<svg width="1264" height="543" viewBox="0 0 1264 543" fill="none" xmlns="http://www.w3.org/2000/svg">
<g clip-path="url(#clip0_65_34317)">
<path d="M716.931 251.41C663.54 331.813 596.295 395.085 530.758 432.393C465.201 469.713 401.48 480.993 355.007 457.665C308.535 434.336 287.909 380.717 292.304 312.695C296.697 244.693 326.097 162.424 379.488 82.0211C432.879 1.61816 500.124 -61.6536 565.661 -98.9622C631.218 -136.282 694.939 -147.562 741.412 -124.234C787.884 -100.905 808.51 -47.2859 804.115 20.7365C799.722 88.7377 770.322 171.007 716.931 251.41Z" stroke="url(#paint0_linear_65_34317)"/>
<path d="M399.369 251.41C345.978 331.813 278.732 395.085 213.196 432.393C147.639 469.713 83.9174 480.993 37.4448 457.665C-9.0278 434.336 -29.6534 380.717 -25.2588 312.695C-20.8655 244.693 8.53437 162.424 61.9252 82.0211C115.316 1.61816 182.561 -61.6536 248.098 -98.9622C313.655 -136.282 377.376 -147.562 423.849 -124.234C470.322 -100.905 490.947 -47.2859 486.553 20.7365C482.159 88.7377 452.759 171.007 399.369 251.41Z" stroke="url(#paint1_linear_65_34317)"/>
<path d="M1034.76 251.41C981.368 331.813 914.123 395.085 848.586 432.393C783.029 469.713 719.308 480.993 672.835 457.665C626.363 434.336 605.737 380.717 610.132 312.695C614.525 244.693 643.925 162.424 697.316 82.0211C750.707 1.61816 817.952 -61.6536 883.489 -98.9622C949.046 -136.282 1012.77 -147.562 1059.24 -124.234C1105.71 -100.905 1126.34 -47.2859 1121.94 20.7365C1117.55 88.7377 1088.15 171.007 1034.76 251.41Z" stroke="url(#paint2_linear_65_34317)"/>
<path d="M1352.37 251.41C1298.98 331.813 1231.73 395.085 1166.2 432.393C1100.64 469.713 1036.92 480.993 990.445 457.665C943.972 434.336 923.347 380.717 927.741 312.695C932.134 244.693 961.534 162.424 1014.93 82.0211C1068.32 1.61816 1135.56 -61.6536 1201.1 -98.9622C1266.66 -136.282 1330.38 -147.562 1376.85 -124.234C1423.32 -100.905 1443.95 -47.2859 1439.55 20.7365C1435.16 88.7377 1405.76 171.007 1352.37 251.41Z" stroke="url(#paint3_linear_65_34317)"/>
</g>
<defs>
<linearGradient id="paint0_linear_65_34317" x1="741.688" y1="-124.65" x2="430.163" y2="495.946" gradientUnits="userSpaceOnUse">
<stop stop-color="#F2F2F2"/>
<stop offset="0.5625" stop-color="#F2F2F2" stop-opacity="0.5"/>
<stop offset="1" stop-color="#F2F2F2" stop-opacity="0"/>
</linearGradient>
<linearGradient id="paint1_linear_65_34317" x1="424.126" y1="-124.65" x2="112.6" y2="495.946" gradientUnits="userSpaceOnUse">
<stop stop-color="#F2F2F2"/>
<stop offset="0.5625" stop-color="#F2F2F2" stop-opacity="0.5"/>
<stop offset="1" stop-color="#F2F2F2" stop-opacity="0"/>
</linearGradient>
<linearGradient id="paint2_linear_65_34317" x1="1059.52" y1="-124.65" x2="747.991" y2="495.946" gradientUnits="userSpaceOnUse">
<stop stop-color="#F2F2F2"/>
<stop offset="0.5625" stop-color="#F2F2F2" stop-opacity="0.5"/>
<stop offset="1" stop-color="#F2F2F2" stop-opacity="0"/>
</linearGradient>
<linearGradient id="paint3_linear_65_34317" x1="1377.13" y1="-124.65" x2="1065.6" y2="495.946" gradientUnits="userSpaceOnUse">
<stop stop-color="#F2F2F2"/>
<stop offset="0.5625" stop-color="#F2F2F2" stop-opacity="0.5"/>
<stop offset="1" stop-color="#F2F2F2" stop-opacity="0"/>
</linearGradient>
<clipPath id="clip0_65_34317">
<rect width="1264" height="543" fill="white"/>
</clipPath>
</defs>
</svg>
