<svg width="72" height="48" viewBox="0 0 72 48" fill="none" xmlns="http://www.w3.org/2000/svg">
<path fill-rule="evenodd" clip-rule="evenodd" d="M49.338 4H22.662C21.7858 3.99963 20.9182 4.17216 20.1089 4.5077C19.2995 4.84325 18.5643 5.33521 17.9454 5.9554C17.3266 6.57559 16.8361 7.31182 16.5023 8.12188C16.1685 8.93195 15.9978 9.79993 16 10.6761V37.338C15.9993 38.2131 16.1711 39.0797 16.5056 39.8883C16.8402 40.6969 17.3308 41.4316 17.9496 42.0504C18.5684 42.6692 19.3031 43.1599 20.1117 43.4944C20.9203 43.8289 21.7869 44.0007 22.662 44H49.338C50.2131 44.0007 51.0797 43.8289 51.8883 43.4944C52.6969 43.1599 53.4316 42.6692 54.0504 42.0504C54.6692 41.4316 55.1599 40.6969 55.4944 39.8883C55.8289 39.0797 56.0007 38.2131 56 37.338V10.662C56.0007 9.78689 55.8289 8.92026 55.4944 8.11166C55.1599 7.30306 54.6692 6.56836 54.0504 5.94959C53.4316 5.33082 52.6969 4.84013 51.8883 4.5056C51.0797 4.17107 50.2131 3.99926 49.338 4ZM21.3248 16.1546H30.2169C33.2797 16.1546 35.9332 17.2979 35.9332 20.4877C35.9332 22.1955 35.1145 23.1835 33.6184 23.9598C35.7214 24.6373 36.7941 26.0487 36.7941 28.18C36.7941 29.7749 36.2013 31.1017 35.0581 32.0473C33.5478 33.3035 31.84 33.3459 29.9205 33.3459H21.3248V16.1546ZM25.8555 19.5844V22.9154H29.1583C30.725 22.9154 31.4448 22.4072 31.4448 21.2499C31.4448 19.8243 30.2733 19.5844 29.0313 19.5844H25.8555ZM25.8555 25.8653V29.8032H29.5111C30.8943 29.8032 32.1364 29.535 32.1364 27.8413C32.1364 26.1758 30.8238 25.8653 29.3841 25.8653H25.8555ZM39.2359 16.1546H44.0066C47.3093 16.1969 49.9346 17.7919 49.9628 21.137C49.9628 23.113 49.0312 24.5385 47.1964 25.3289C48.3255 25.6818 49.13 26.4298 49.4547 27.5449L49.459 27.5597C49.7235 28.4644 49.7805 28.6596 50.0051 31.1864C50.0129 31.2738 50.0199 31.3602 50.0267 31.4455V31.4456C50.0819 32.1322 50.1319 32.7543 50.5838 33.3317H45.8414C45.5015 32.5696 45.4397 31.6045 45.3818 30.6997V30.6997V30.6997C45.3603 30.3646 45.3394 30.0378 45.3051 29.7326C45.0792 27.7142 44.2747 26.9379 42.1152 26.9379H39.25V23.7481H42.5387C44.063 23.7481 45.3474 23.4376 45.3474 21.631C45.3474 20.276 44.4159 19.6267 42.4822 19.6267H39.2359V16.1546Z" fill="white"/>
</svg>
