<svg width="10" height="12" viewBox="0 0 10 12" fill="none" xmlns="http://www.w3.org/2000/svg">
<path fill-rule="evenodd" clip-rule="evenodd" d="M4.15281 0C4.09967 1.32838 3.57894 4.20832 1.92112 5.10099C1.92112 4.72905 1.82548 3.88951 1.4429 3.50693C1.4429 3.50693 0.433333 5.57921 0.167656 6.37624C-0.0980209 7.17327 -0.18321 9.18179 0.964514 10.202C1.31764 10.5159 1.67982 10.823 2.05847 11.0961C2.15379 10.4183 2.37333 9.69638 2.77234 8.94494C4.29309 6.08091 5.66901 5.88699 6.03109 6.03615C6.02777 6.07721 6.02423 6.11986 6.02057 6.16398C5.92448 7.32222 5.74461 9.49027 7.20956 10.18L8.14777 10.6521C8.48766 10.3068 8.80673 9.89346 9.09408 9.40496C10.3131 7.33268 10.0278 5.62374 8.93468 3.66634C8.64851 3.15389 8.20768 2.67596 7.91022 2.35347C7.80366 2.23794 7.71549 2.14235 7.65943 2.07228C7.71257 2.7099 7.72319 4.01703 7.34062 4.14456C7.23455 3.24126 6.4485 1.14772 4.15281 0Z" fill="#34334A"/>
</svg>
