<svg width="27" height="23" viewBox="0 0 27 23" fill="none" xmlns="http://www.w3.org/2000/svg">
<path d="M22.9721 8.08152C22.3182 5.76068 21.8702 3.52266 21.6189 1.36238C21.478 1.39238 21.3371 1.42234 21.1962 1.45226L21.4451 0.0438163C21.6909 -0.00859634 22.0638 -0.0537992 22.4005 0.157204C22.7481 0.375062 22.8601 0.739483 22.9089 0.990711C22.9123 1.00821 22.915 1.02584 22.917 1.04355C23.1617 3.23401 23.6176 5.51739 24.299 7.90054C24.3765 8.17121 24.4167 8.55397 24.1716 8.8936C23.9474 9.20446 23.5995 9.30948 23.3603 9.35638C22.4296 9.5392 21.5018 9.73269 20.5701 9.92701C20.2691 9.98979 19.9669 10.0528 19.6648 10.1154L19.9133 8.70959C20.0398 8.68323 20.1664 8.65683 20.2931 8.6304C21.1827 8.44487 22.0773 8.25828 22.9721 8.08152Z" fill="#8D8C98"/>
<path d="M19.9133 8.70959L19.6648 10.1154C19.3047 10.1903 18.9467 10.2633 18.5903 10.336C17.7334 10.5107 16.8852 10.6836 16.0379 10.8764C15.7826 10.9346 15.3937 10.9887 15.0448 10.7673C14.7032 10.5506 14.5886 10.1906 14.5363 9.93828C13.9025 7.68586 13.3762 5.37854 13.1339 2.97154C13.0888 2.7332 13.0595 2.37912 13.2711 2.05935C13.4929 1.72415 13.8551 1.61436 14.1066 1.5634L14.1077 1.56317C16.5554 1.07166 19.0034 0.564124 21.4451 0.0438163L21.1962 1.45226C18.9522 1.92857 16.703 2.39398 14.4538 2.84598C14.6856 5.14212 15.1893 7.36272 15.8096 9.56863C16.6508 9.37827 17.4999 9.20514 18.341 9.03364C18.6942 8.96162 19.046 8.88988 19.3953 8.81728C19.5676 8.78155 19.7405 8.74558 19.9133 8.70959Z" fill="#8D8C98"/>
<path d="M19.9133 8.70959L21.1962 1.45226C21.1961 1.45227 21.1962 1.45225 21.1962 1.45226L19.9133 8.70959C19.9133 8.70959 19.9133 8.70959 19.9133 8.70959Z" fill="#8D8C98"/>
<path fill-rule="evenodd" clip-rule="evenodd" d="M11.975 3.34578C11.9209 3.06651 11.8042 2.66947 11.4301 2.43912C11.0759 2.22104 10.6755 2.27203 10.4113 2.32253C8.68244 2.65491 7.03895 3.24831 5.54627 4.26038C2.59103 6.22107 0.963014 9.16312 0.811439 12.156C0.659561 15.1549 1.99403 18.1548 4.85551 20.1965C7.70399 22.2808 10.9516 22.647 14.3435 21.908C14.6353 21.8453 15.0359 21.7229 15.273 21.3592C15.5115 20.9933 15.4561 20.5802 15.3979 20.3054C15.1049 18.9063 14.7066 17.5628 14.3171 16.2493L14.2896 16.1565C13.8889 14.8049 13.5 13.4829 13.2229 12.1117C13.2192 12.0933 13.2147 12.0751 13.2094 12.0572C12.935 10.6813 12.7672 9.24697 12.5986 7.7814L12.5869 7.67999C12.4211 6.23868 12.2518 4.76728 11.975 3.34578ZM10.6779 3.6215L10.6609 3.62466C9.06713 3.93114 7.60094 4.46853 6.28774 5.3595L6.28191 5.36346C3.65375 7.10605 2.26464 9.67482 2.13558 12.2231C2.00684 14.7652 3.128 17.3366 5.62865 19.1194L5.63549 19.1243C8.10937 20.9359 10.9468 21.2914 14.0624 20.6123L14.0645 20.6119C14.0791 20.6087 14.0928 20.6056 14.1054 20.6026L14.1007 20.5798L14.1003 20.5779C13.8186 19.2323 13.4337 17.9338 13.0398 16.6054L13.0185 16.5334C12.6246 15.2047 12.2238 13.8456 11.934 12.4272C11.9286 12.4087 11.9239 12.3899 11.9201 12.3709C11.6267 10.9156 11.4512 9.40867 11.2814 7.93299L11.2723 7.85424C11.1055 6.404 10.9422 4.98496 10.6779 3.6215Z" fill="#8D8C98"/>
<path fill-rule="evenodd" clip-rule="evenodd" d="M22.6746 20.1685L22.6783 20.1677C23.5625 19.9813 24.4384 19.7966 25.3205 19.6299C25.598 19.5774 25.9771 19.4638 26.2127 19.1198C26.4513 18.7714 26.4143 18.376 26.3576 18.1005C26.3529 18.0774 26.3469 18.0546 26.3398 18.0322C25.6718 15.9426 25.2316 13.6779 24.9735 11.2588C24.9715 11.2399 24.9687 11.2212 24.9651 11.2026C24.9179 10.9599 24.8139 10.5858 24.4706 10.356C24.1261 10.1254 23.7356 10.1695 23.4684 10.2273C21.0503 10.7473 18.6256 11.2482 16.1974 11.7332C15.9558 11.7805 15.5856 11.879 15.3488 12.2018C15.1084 12.5295 15.1332 12.9048 15.184 13.1694C15.4385 15.6325 15.9575 17.9285 16.5858 20.1302C16.6485 20.4403 16.7909 20.8191 17.1717 21.0289C17.5323 21.2276 17.9259 21.1666 18.1843 21.1078C19.0108 20.9227 19.8372 20.7544 20.6707 20.5846C21.0099 20.5155 21.3503 20.4461 21.6924 20.3753C21.7022 20.3733 21.712 20.3711 21.7216 20.3686C22.0408 20.3022 22.3582 20.2353 22.6746 20.1685ZM23.6704 11.54C23.9336 13.9381 24.375 16.2114 25.0441 18.3328C24.1573 18.5008 23.2711 18.6877 22.3924 18.873C22.0672 18.9416 21.7427 19.01 21.4199 19.0771C21.4145 19.0783 21.4092 19.0794 21.4039 19.0807C21.3999 19.0816 21.3959 19.0826 21.392 19.0836C21.0705 19.1501 20.747 19.216 20.4223 19.2821L20.4191 19.2827C19.5802 19.4536 18.7336 19.6261 17.8936 19.8142L17.891 19.8148L17.8751 19.8183C17.8742 19.8148 17.8733 19.8112 17.8724 19.8076C17.8711 19.8028 17.8698 19.798 17.8684 19.7932C17.2496 17.6288 16.7467 15.4007 16.5019 13.0244C18.8952 12.5461 21.2857 12.0524 23.6704 11.54Z" fill="#8D8C98"/>
</svg>
