<svg width="1280" height="543" viewBox="0 0 1280 543" fill="none" xmlns="http://www.w3.org/2000/svg">
<g clip-path="url(#clip0_65_33260)">
<path opacity="0.09" d="M716.931 251.409C663.54 331.811 596.295 395.083 530.758 432.392C465.201 469.712 401.48 480.991 355.007 457.663C308.535 434.335 287.909 380.716 292.304 312.693C296.697 244.692 326.097 162.423 379.488 82.0196C432.879 1.61669 500.124 -61.6551 565.661 -98.9636C631.218 -136.284 694.939 -147.563 741.412 -124.235C787.884 -100.907 808.51 -47.2874 804.115 20.7351C799.722 88.7362 770.322 171.006 716.931 251.409Z" stroke="url(#paint0_linear_65_33260)"/>
<path opacity="0.09" d="M399.369 251.409C345.978 331.811 278.732 395.083 213.196 432.392C147.639 469.712 83.9174 480.991 37.4448 457.663C-9.0278 434.335 -29.6534 380.716 -25.2588 312.693C-20.8655 244.692 8.53437 162.423 61.9252 82.0196C115.316 1.61669 182.561 -61.6551 248.098 -98.9636C313.655 -136.284 377.376 -147.563 423.849 -124.235C470.322 -100.907 490.947 -47.2874 486.553 20.7351C482.159 88.7362 452.759 171.006 399.369 251.409Z" stroke="url(#paint1_linear_65_33260)"/>
<path opacity="0.09" d="M1034.76 251.409C981.368 331.811 914.123 395.083 848.586 432.392C783.029 469.712 719.308 480.991 672.835 457.663C626.363 434.335 605.737 380.716 610.132 312.693C614.525 244.692 643.925 162.423 697.316 82.0196C750.707 1.61669 817.952 -61.6551 883.489 -98.9636C949.046 -136.284 1012.77 -147.563 1059.24 -124.235C1105.71 -100.907 1126.34 -47.2874 1121.94 20.7351C1117.55 88.7362 1088.15 171.006 1034.76 251.409Z" stroke="url(#paint2_linear_65_33260)"/>
<path opacity="0.09" d="M1352.37 251.409C1298.98 331.811 1231.73 395.083 1166.2 432.392C1100.64 469.712 1036.92 480.991 990.445 457.663C943.972 434.335 923.347 380.716 927.741 312.693C932.134 244.692 961.534 162.423 1014.93 82.0196C1068.32 1.61669 1135.56 -61.6551 1201.1 -98.9636C1266.66 -136.284 1330.38 -147.563 1376.85 -124.235C1423.32 -100.907 1443.95 -47.2874 1439.55 20.7351C1435.16 88.7362 1405.76 171.006 1352.37 251.409Z" stroke="url(#paint3_linear_65_33260)"/>
</g>
<defs>
<linearGradient id="paint0_linear_65_33260" x1="741.688" y1="-124.652" x2="430.163" y2="495.945" gradientUnits="userSpaceOnUse">
<stop stop-color="#34334A"/>
<stop offset="0.5625" stop-color="#34334A" stop-opacity="0.5"/>
<stop offset="1" stop-color="#34334A" stop-opacity="0"/>
</linearGradient>
<linearGradient id="paint1_linear_65_33260" x1="424.126" y1="-124.652" x2="112.6" y2="495.945" gradientUnits="userSpaceOnUse">
<stop stop-color="#34334A"/>
<stop offset="0.5625" stop-color="#34334A" stop-opacity="0.5"/>
<stop offset="1" stop-color="#34334A" stop-opacity="0"/>
</linearGradient>
<linearGradient id="paint2_linear_65_33260" x1="1059.52" y1="-124.652" x2="747.991" y2="495.945" gradientUnits="userSpaceOnUse">
<stop stop-color="#34334A"/>
<stop offset="0.5625" stop-color="#34334A" stop-opacity="0.5"/>
<stop offset="1" stop-color="#34334A" stop-opacity="0"/>
</linearGradient>
<linearGradient id="paint3_linear_65_33260" x1="1377.13" y1="-124.652" x2="1065.6" y2="495.945" gradientUnits="userSpaceOnUse">
<stop stop-color="#34334A"/>
<stop offset="0.5625" stop-color="#34334A" stop-opacity="0.5"/>
<stop offset="1" stop-color="#34334A" stop-opacity="0"/>
</linearGradient>
<clipPath id="clip0_65_33260">
<rect width="1280" height="543" fill="white"/>
</clipPath>
</defs>
</svg>
