<svg width="1265" height="543" viewBox="0 0 1265 543" fill="none" xmlns="http://www.w3.org/2000/svg">
<g clip-path="url(#clip0_65_34322)">
<path opacity="0.09" d="M717.665 251.41C664.275 331.813 597.029 395.085 531.493 432.393C465.935 469.713 402.214 480.993 355.742 457.665C309.269 434.336 288.643 380.717 293.038 312.695C297.431 244.693 326.831 162.424 380.222 82.0211C433.613 1.61816 500.858 -61.6536 566.395 -98.9622C631.952 -136.282 695.673 -147.562 742.146 -124.234C788.619 -100.905 809.244 -47.2859 804.849 20.7365C800.456 88.7377 771.056 171.007 717.665 251.41Z" stroke="url(#paint0_linear_65_34322)"/>
<path opacity="0.09" d="M400.103 251.41C346.712 331.813 279.467 395.085 213.93 432.393C148.373 469.713 84.6518 480.993 38.1792 457.665C-8.29343 434.336 -28.919 380.717 -24.5244 312.695C-20.1311 244.693 9.26875 162.424 62.6596 82.0211C116.05 1.61816 183.296 -61.6536 248.832 -98.9622C314.39 -136.282 378.111 -147.562 424.583 -124.234C471.056 -100.905 491.682 -47.2859 487.287 20.7365C482.894 88.7377 453.494 171.007 400.103 251.41Z" stroke="url(#paint1_linear_65_34322)"/>
<path opacity="0.09" d="M1035.49 251.41C982.103 331.813 914.857 395.085 849.321 432.393C783.764 469.713 720.042 480.993 673.57 457.665C627.097 434.336 606.472 380.717 610.866 312.695C615.259 244.693 644.659 162.424 698.05 82.0211C751.441 1.61816 818.686 -61.6536 884.223 -98.9622C949.78 -136.282 1013.5 -147.562 1059.97 -124.234C1106.45 -100.905 1127.07 -47.2859 1122.68 20.7365C1118.28 88.7377 1088.88 171.007 1035.49 251.41Z" stroke="url(#paint2_linear_65_34322)"/>
<path opacity="0.09" d="M1353.1 251.41C1299.71 331.813 1232.47 395.085 1166.93 432.393C1101.37 469.713 1037.65 480.993 991.179 457.665C944.707 434.336 924.081 380.717 928.476 312.695C932.869 244.693 962.269 162.424 1015.66 82.0211C1069.05 1.61816 1136.3 -61.6536 1201.83 -98.9622C1267.39 -136.282 1331.11 -147.562 1377.58 -124.234C1424.06 -100.905 1444.68 -47.2859 1440.29 20.7365C1435.89 88.7377 1406.49 171.007 1353.1 251.41Z" stroke="url(#paint3_linear_65_34322)"/>
</g>
<defs>
<linearGradient id="paint0_linear_65_34322" x1="742.422" y1="-124.65" x2="430.897" y2="495.946" gradientUnits="userSpaceOnUse">
<stop stop-color="#F2F2F2"/>
<stop offset="0.5625" stop-color="#F2F2F2" stop-opacity="0.5"/>
<stop offset="1" stop-color="#F2F2F2" stop-opacity="0"/>
</linearGradient>
<linearGradient id="paint1_linear_65_34322" x1="424.86" y1="-124.65" x2="113.335" y2="495.946" gradientUnits="userSpaceOnUse">
<stop stop-color="#F2F2F2"/>
<stop offset="0.5625" stop-color="#F2F2F2" stop-opacity="0.5"/>
<stop offset="1" stop-color="#F2F2F2" stop-opacity="0"/>
</linearGradient>
<linearGradient id="paint2_linear_65_34322" x1="1060.25" y1="-124.65" x2="748.725" y2="495.946" gradientUnits="userSpaceOnUse">
<stop stop-color="#F2F2F2"/>
<stop offset="0.5625" stop-color="#F2F2F2" stop-opacity="0.5"/>
<stop offset="1" stop-color="#F2F2F2" stop-opacity="0"/>
</linearGradient>
<linearGradient id="paint3_linear_65_34322" x1="1377.86" y1="-124.65" x2="1066.33" y2="495.946" gradientUnits="userSpaceOnUse">
<stop stop-color="#F2F2F2"/>
<stop offset="0.5625" stop-color="#F2F2F2" stop-opacity="0.5"/>
<stop offset="1" stop-color="#F2F2F2" stop-opacity="0"/>
</linearGradient>
<clipPath id="clip0_65_34322">
<rect width="1264" height="543" fill="white" transform="translate(0.734375)"/>
</clipPath>
</defs>
</svg>
