<svg width="1184" height="72" viewBox="0 0 1184 72" fill="none" xmlns="http://www.w3.org/2000/svg">
<path d="M0.825313 64.3285H7.78131V50.2285H50.5513V64.3285H57.5073V43.1785H49.5173V2.75852H16.4293L13.7973 25.4125C12.6693 35.1885 11.0713 40.3585 7.02931 43.1785H0.825313V64.3285ZM15.1133 43.1785V42.2385C18.5913 39.1365 20.0013 35.5645 20.8473 28.7025L23.1033 9.80851H41.7153V43.1785H15.1133ZM82.4313 52.1085C97.2833 52.1085 107.905 41.4865 107.905 26.4465C107.905 11.5005 97.2833 0.878512 82.4313 0.878512C67.4853 0.878512 56.9573 11.5005 56.9573 26.4465C56.9573 41.4865 67.4853 52.1085 82.4313 52.1085ZM82.4313 45.0585C72.0913 45.0585 64.7593 37.2565 64.7593 26.4465C64.7593 15.7305 72.0913 7.92851 82.4313 7.92851C92.6773 7.92851 100.103 15.7305 100.103 26.4465C100.103 37.2565 92.6773 45.0585 82.4313 45.0585ZM129.676 50.2285H153.834C163.046 50.2285 169.532 44.5885 169.532 36.5045C169.532 30.4885 165.866 26.8225 160.884 25.7885V24.8485C164.926 23.4385 168.122 19.6785 168.122 14.6025C168.122 7.83451 162.012 2.75852 153.458 2.75852H129.676V50.2285ZM137.478 22.0285V9.43251H152.612C157.124 9.43251 160.414 12.3465 160.414 15.8245C160.414 19.3025 157.124 22.0285 152.612 22.0285H137.478ZM137.478 43.5545V28.7965H152.518C157.97 28.7965 161.73 31.8045 161.73 35.9405C161.73 40.0765 157.97 43.5545 152.518 43.5545H137.478ZM187.888 51.7325C195.502 51.7325 201.048 48.7245 204.432 43.2725H205.278V50.2285H213.08V18.7385C213.08 7.92851 205.278 0.972511 192.964 0.972511C181.026 0.972511 173.224 7.36451 173.224 17.4225H181.12C181.026 11.5005 185.726 8.02251 192.87 8.02251C200.672 8.02251 205.278 12.1585 205.278 18.5505V20.4305L192.118 22.0285C178.018 23.6265 170.874 29.8305 170.874 38.1965C170.874 46.3745 177.642 51.7325 187.888 51.7325ZM189.016 45.2465C182.624 45.2465 178.676 42.5205 178.676 38.0085C178.676 33.5905 182.436 29.8305 192.118 28.6085L205.278 27.1045V31.3345C205.278 39.3245 198.698 45.2465 189.016 45.2465ZM219.776 50.2285H284.824V2.75852H277.022V43.1785H256.154V2.75852H248.352V43.1785H227.578V2.75852H219.776V50.2285ZM315.584 52.1085C326.112 52.1085 334.666 47.2205 338.426 39.1365L331.94 35.8465C329.026 41.4865 322.822 45.0585 315.678 45.0585C306.09 45.0585 299.134 38.6665 298.006 29.0785H340.024C340.118 28.0445 340.118 26.9165 340.118 25.9765C340.118 11.4065 329.59 0.878512 315.114 0.878512C300.45 0.878512 289.922 11.4065 289.922 25.8825C289.922 41.1105 300.732 52.1085 315.584 52.1085ZM298.1 22.2165C299.416 13.6625 305.996 7.92851 314.832 7.92851C323.762 7.92851 330.53 13.6625 331.846 22.2165H298.1ZM345.219 50.2285H353.021V9.80851H378.213V2.75852H345.219V50.2285ZM402.74 52.1085C417.592 52.1085 428.214 41.4865 428.214 26.4465C428.214 11.5005 417.592 0.878512 402.74 0.878512C387.794 0.878512 377.266 11.5005 377.266 26.4465C377.266 41.4865 387.794 52.1085 402.74 52.1085ZM402.74 45.0585C392.4 45.0585 385.068 37.2565 385.068 26.4465C385.068 15.7305 392.4 7.92851 402.74 7.92851C412.986 7.92851 420.412 15.7305 420.412 26.4465C420.412 37.2565 412.986 45.0585 402.74 45.0585ZM449.984 50.2285H457.786V9.80851H486.362V50.2285H494.164V2.75852H449.984V50.2285ZM527.866 0.878512C520.064 0.878512 513.954 4.26251 510.476 9.99651H509.63V2.75852H501.828V71.8485H509.63V43.1785H510.476C513.954 48.8185 520.346 52.1085 527.96 52.1085C541.778 52.1085 552.4 41.2985 552.4 26.4465C552.4 11.5945 541.684 0.878512 527.866 0.878512ZM527.02 7.92851C537.172 7.92851 544.598 15.8245 544.598 26.4465C544.598 36.8805 537.172 45.0585 527.02 45.0585C516.774 45.0585 509.348 36.8805 509.348 26.4465C509.348 16.0125 516.774 7.92851 527.02 7.92851ZM580.554 52.1085C595.406 52.1085 606.028 41.4865 606.028 26.4465C606.028 11.5005 595.406 0.878512 580.554 0.878512C565.608 0.878512 555.08 11.5005 555.08 26.4465C555.08 41.4865 565.608 52.1085 580.554 52.1085ZM580.554 45.0585C570.214 45.0585 562.882 37.2565 562.882 26.4465C562.882 15.7305 570.214 7.92851 580.554 7.92851C590.8 7.92851 598.226 15.7305 598.226 26.4465C598.226 37.2565 590.8 45.0585 580.554 45.0585ZM634.332 52.1085C644.86 52.1085 653.414 47.2205 657.174 39.1365L650.688 35.8465C647.774 41.4865 641.57 45.0585 634.426 45.0585C624.838 45.0585 617.882 38.6665 616.754 29.0785H658.772C658.866 28.0445 658.866 26.9165 658.866 25.9765C658.866 11.4065 648.338 0.878512 633.862 0.878512C619.198 0.878512 608.67 11.4065 608.67 25.8825C608.67 41.1105 619.48 52.1085 634.332 52.1085ZM616.848 22.2165C618.164 13.6625 624.744 7.92851 633.58 7.92851C642.51 7.92851 649.278 13.6625 650.594 22.2165H616.848ZM663.967 50.2285H671.769V28.1385H672.709L693.483 50.2285H703.917L679.947 25.5065L703.353 2.75852H693.013L672.709 23.0625H671.769V2.75852H663.967V50.2285ZM716.459 50.2285H724.261V9.80851H741.369V2.75852H699.257V9.80851H716.459V50.2285ZM757.04 51.7325C764.654 51.7325 770.2 48.7245 773.584 43.2725H774.43V50.2285H782.232V18.7385C782.232 7.92851 774.43 0.972511 762.116 0.972511C750.178 0.972511 742.376 7.36451 742.376 17.4225H750.272C750.178 11.5005 754.878 8.02251 762.022 8.02251C769.824 8.02251 774.43 12.1585 774.43 18.5505V20.4305L761.27 22.0285C747.17 23.6265 740.026 29.8305 740.026 38.1965C740.026 46.3745 746.794 51.7325 757.04 51.7325ZM758.168 45.2465C751.776 45.2465 747.828 42.5205 747.828 38.0085C747.828 33.5905 751.588 29.8305 761.27 28.6085L774.43 27.1045V31.3345C774.43 39.3245 767.85 45.2465 758.168 45.2465ZM828.549 52.1085C843.401 52.1085 854.023 41.4865 854.023 26.4465C854.023 11.5005 843.401 0.878512 828.549 0.878512C813.603 0.878512 803.075 11.5005 803.075 26.4465C803.075 41.4865 813.603 52.1085 828.549 52.1085ZM828.549 45.0585C818.209 45.0585 810.877 37.2565 810.877 26.4465C810.877 15.7305 818.209 7.92851 828.549 7.92851C838.795 7.92851 846.221 15.7305 846.221 26.4465C846.221 37.2565 838.795 45.0585 828.549 45.0585ZM881.386 52.1085C892.666 52.1085 902.536 44.8705 904.698 34.7185L897.084 33.7785C895.11 40.4525 888.812 45.0585 881.386 45.0585C871.704 45.0585 864.466 37.4445 864.466 26.4465C864.372 15.5425 871.798 7.92851 881.48 7.92851C888.718 7.92851 895.204 12.5345 896.99 19.3965L904.51 18.3625C902.818 8.21051 893.042 0.878512 881.386 0.878512C867.098 0.878512 856.664 11.5945 856.664 26.4465C856.57 41.2985 867.004 52.1085 881.386 52.1085ZM920.964 50.2285H928.766V9.80851H945.874V2.75852H903.762V9.80851H920.964V50.2285ZM961.545 51.7325C969.159 51.7325 974.705 48.7245 978.089 43.2725H978.935V50.2285H986.737V18.7385C986.737 7.92851 978.935 0.972511 966.621 0.972511C954.683 0.972511 946.881 7.36451 946.881 17.4225H954.777C954.683 11.5005 959.383 8.02251 966.527 8.02251C974.329 8.02251 978.935 12.1585 978.935 18.5505V20.4305L965.775 22.0285C951.675 23.6265 944.531 29.8305 944.531 38.1965C944.531 46.3745 951.299 51.7325 961.545 51.7325ZM962.673 45.2465C956.281 45.2465 952.333 42.5205 952.333 38.0085C952.333 33.5905 956.093 29.8305 965.775 28.6085L978.935 27.1045V31.3345C978.935 39.3245 972.355 45.2465 962.673 45.2465ZM987.229 50.2285C995.313 50.2285 1001.99 46.0925 1003.59 34.5305L1007.06 9.80851H1024.36V50.2285H1032.16V2.75852H1000.11L996.723 30.0185C995.595 38.9485 993.903 43.6485 987.229 43.6485V50.2285ZM1062.7 52.1085C1077.56 52.1085 1088.18 41.4865 1088.18 26.4465C1088.18 11.5005 1077.56 0.878512 1062.7 0.878512C1047.76 0.878512 1037.23 11.5005 1037.23 26.4465C1037.23 41.4865 1047.76 52.1085 1062.7 52.1085ZM1062.7 45.0585C1052.36 45.0585 1045.03 37.2565 1045.03 26.4465C1045.03 15.7305 1052.36 7.92851 1062.7 7.92851C1072.95 7.92851 1080.38 15.7305 1080.38 26.4465C1080.38 37.2565 1072.95 45.0585 1062.7 45.0585ZM1115.54 52.1085C1126.82 52.1085 1136.69 44.8705 1138.85 34.7185L1131.24 33.7785C1129.27 40.4525 1122.97 45.0585 1115.54 45.0585C1105.86 45.0585 1098.62 37.4445 1098.62 26.4465C1098.53 15.5425 1105.95 7.92851 1115.64 7.92851C1122.87 7.92851 1129.36 12.5345 1131.15 19.3965L1138.67 18.3625C1136.97 8.21051 1127.2 0.878512 1115.54 0.878512C1101.25 0.878512 1090.82 11.5945 1090.82 26.4465C1090.73 41.2985 1101.16 52.1085 1115.54 52.1085ZM1144.01 50.2285H1164.87C1176.34 50.2285 1183.86 43.7425 1183.86 33.6845C1183.86 23.9085 1176.34 17.3285 1164.87 17.3285H1151.81V2.75852H1144.01V50.2285ZM1151.81 43.1785V24.3785H1164.87C1171.64 24.3785 1176.15 28.0445 1176.15 33.7785C1176.15 39.5125 1171.74 43.1785 1164.87 43.1785H1151.81Z" fill="#FCFBFD"/>
</svg>
